<svg width="32" height="32" viewBox="0 0 32 32" fill="none" xmlns="http://www.w3.org/2000/svg">
<path d="M14.6899 3.7521C14.7471 3.44624 14.9094 3.16999 15.1487 2.97119C15.3881 2.7724 15.6894 2.66357 16.0006 2.66357C16.3117 2.66357 16.6131 2.7724 16.8525 2.97119C17.0918 3.16999 17.2541 3.44624 17.3113 3.7521L18.7126 11.1628C18.8121 11.6896 19.0682 12.1743 19.4473 12.5534C19.8264 12.9325 20.3111 13.1886 20.8379 13.2881L28.2486 14.6894C28.5545 14.7466 28.8307 14.9089 29.0295 15.1482C29.2283 15.3876 29.3371 15.6889 29.3371 16.0001C29.3371 16.3113 29.2283 16.6126 29.0295 16.852C28.8307 17.0913 28.5545 17.2536 28.2486 17.3108L20.8379 18.7121C20.3111 18.8116 19.8264 19.0677 19.4473 19.4468C19.0682 19.8259 18.8121 20.3106 18.7126 20.8374L17.3113 28.2481C17.2541 28.554 17.0918 28.8302 16.8525 29.029C16.6131 29.2278 16.3117 29.3366 16.0006 29.3366C15.6894 29.3366 15.3881 29.2278 15.1487 29.029C14.9094 28.8302 14.7471 28.554 14.6899 28.2481L13.2886 20.8374C13.1891 20.3106 12.933 19.8259 12.5539 19.4468C12.1747 19.0677 11.6901 18.8116 11.1633 18.7121L3.75259 17.3108C3.44673 17.2536 3.17048 17.0913 2.97168 16.852C2.77288 16.6126 2.66406 16.3113 2.66406 16.0001C2.66406 15.6889 2.77288 15.3876 2.97168 15.1482C3.17048 14.9089 3.44673 14.7466 3.75259 14.6894L11.1633 13.2881C11.6901 13.1886 12.1747 12.9325 12.5539 12.5534C12.933 12.1743 13.1891 11.6896 13.2886 11.1628L14.6899 3.7521Z" stroke="#28315C" stroke-width="2" stroke-linecap="round" stroke-linejoin="round"/>
<path d="M26.6641 2.6665V7.99984" stroke="#28315C" stroke-width="2" stroke-linecap="round" stroke-linejoin="round"/>
<path d="M29.3333 5.33301H24" stroke="#28315C" stroke-width="2" stroke-linecap="round" stroke-linejoin="round"/>
<path d="M5.33073 29.3333C6.80349 29.3333 7.9974 28.1394 7.9974 26.6667C7.9974 25.1939 6.80349 24 5.33073 24C3.85797 24 2.66406 25.1939 2.66406 26.6667C2.66406 28.1394 3.85797 29.3333 5.33073 29.3333Z" stroke="#28315C" stroke-width="2" stroke-linecap="round" stroke-linejoin="round"/>
</svg>
