<svg width="32" height="32" viewBox="0 0 32 32" fill="none" xmlns="http://www.w3.org/2000/svg">
<path d="M18.6699 2.6665V10.6665C18.6697 11.1138 18.782 11.554 18.9966 11.9465L26.3432 25.3865C26.5654 25.7926 26.6781 26.2497 26.6701 26.7125C26.6621 27.1754 26.5337 27.6283 26.2976 28.0265C26.0615 28.4247 25.7258 28.7546 25.3235 28.9837C24.9212 29.2129 24.4662 29.3333 24.0032 29.3332H8.00322C7.54026 29.3333 7.08524 29.2129 6.68294 28.9837C6.28064 28.7546 5.94492 28.4247 5.70881 28.0265C5.4727 27.6283 5.34433 27.1754 5.33634 26.7125C5.32834 26.2497 5.441 25.7926 5.66322 25.3865L13.0099 11.9465C13.2244 11.554 13.3367 11.1138 13.3366 10.6665V2.6665" stroke="#28315C" stroke-width="2" stroke-linecap="round" stroke-linejoin="round"/>
<path d="M8.60547 20H23.3975" stroke="#28315C" stroke-width="2" stroke-linecap="round" stroke-linejoin="round"/>
<path d="M11.3359 2.6665H20.6693" stroke="#28315C" stroke-width="2" stroke-linecap="round" stroke-linejoin="round"/>
</svg>
