<svg width="32" height="32" viewBox="0 0 32 32" fill="none" xmlns="http://www.w3.org/2000/svg">
<path d="M26.6693 17.3333C26.6693 23.9999 22.0026 27.3333 16.4559 29.2666C16.1655 29.365 15.85 29.3603 15.5626 29.2533C10.0026 27.3333 5.33594 23.9999 5.33594 17.3333V7.99995C5.33594 7.64633 5.47641 7.30719 5.72646 7.05714C5.97651 6.80709 6.31565 6.66662 6.66927 6.66662C9.33594 6.66662 12.6693 5.06662 14.9893 3.03995C15.2717 2.79861 15.6311 2.66602 16.0026 2.66602C16.3741 2.66602 16.7335 2.79861 17.0159 3.03995C19.3493 5.07995 22.6693 6.66662 25.3359 6.66662C25.6896 6.66662 26.0287 6.80709 26.2787 7.05714C26.5288 7.30719 26.6693 7.64633 26.6693 7.99995V17.3333Z" stroke="#28315C" stroke-width="2" stroke-linecap="round" stroke-linejoin="round"/>
</svg>
