<svg width="32" height="32" viewBox="0 0 32 32" fill="none" xmlns="http://www.w3.org/2000/svg">
<path d="M7.99609 24H18.6628" stroke="#28315C" stroke-width="2" stroke-linecap="round" stroke-linejoin="round"/>
<path d="M3.99609 29.333H27.9961" stroke="#28315C" stroke-width="2" stroke-linecap="round" stroke-linejoin="round"/>
<path d="M18.6654 29.3332C21.1407 29.3332 23.5147 28.3498 25.265 26.5995C27.0154 24.8492 27.9987 22.4752 27.9987 19.9998C27.9987 17.5245 27.0154 15.1505 25.265 13.4002C23.5147 11.6498 21.1407 10.6665 18.6654 10.6665H17.332" stroke="#28315C" stroke-width="2" stroke-linecap="round" stroke-linejoin="round"/>
<path d="M11.9961 18.6665H14.6628" stroke="#28315C" stroke-width="2" stroke-linecap="round" stroke-linejoin="round"/>
<path d="M11.9987 16C11.2915 16 10.6132 15.719 10.1131 15.219C9.61298 14.7189 9.33203 14.0406 9.33203 13.3333V8H17.332V13.3333C17.332 14.0406 17.0511 14.7189 16.551 15.219C16.0509 15.719 15.3726 16 14.6654 16H11.9987Z" stroke="#28315C" stroke-width="2" stroke-linecap="round" stroke-linejoin="round"/>
<path d="M15.9974 7.99984V3.99984C15.9974 3.64622 15.8569 3.30708 15.6069 3.05703C15.3568 2.80698 15.0177 2.6665 14.6641 2.6665H11.9974C11.6438 2.6665 11.3046 2.80698 11.0546 3.05703C10.8045 3.30708 10.6641 3.64622 10.6641 3.99984V7.99984" stroke="#28315C" stroke-width="2" stroke-linecap="round" stroke-linejoin="round"/>
</svg>
