<svg width="14" height="14" viewBox="0 0 14 14" fill="none" xmlns="http://www.w3.org/2000/svg">
<path d="M9.02762 7.51953L9.91137 12.493C9.92127 12.5516 9.91305 12.6118 9.88781 12.6656C9.86258 12.7193 9.82153 12.7641 9.77016 12.7939C9.71879 12.8237 9.65954 12.8371 9.60034 12.8324C9.54113 12.8276 9.4848 12.8049 9.43887 12.7672L7.35053 11.1998C7.24972 11.1245 7.12725 11.0838 7.00141 11.0838C6.87557 11.0838 6.7531 11.1245 6.65228 11.1998L4.56045 12.7666C4.51455 12.8042 4.45829 12.8269 4.39916 12.8317C4.34002 12.8365 4.28084 12.8231 4.2295 12.7934C4.17816 12.7636 4.13711 12.719 4.11182 12.6653C4.08653 12.6116 4.0782 12.5515 4.08795 12.493L4.97112 7.51953" stroke="#00A63E" stroke-width="1.2" stroke-linecap="round" stroke-linejoin="round"/>
<path d="M7 8.16699C8.933 8.16699 10.5 6.59999 10.5 4.66699C10.5 2.734 8.933 1.16699 7 1.16699C5.067 1.16699 3.5 2.734 3.5 4.66699C3.5 6.59999 5.067 8.16699 7 8.16699Z" stroke="#00A63E" stroke-width="1.2" stroke-linecap="round" stroke-linejoin="round"/>
</svg>
