<svg width="32" height="32" viewBox="0 0 32 32" fill="none" xmlns="http://www.w3.org/2000/svg">
<path d="M18.666 23.9997V7.99967C18.666 7.29243 18.3851 6.61415 17.885 6.11406C17.3849 5.61396 16.7066 5.33301 15.9993 5.33301H5.33268C4.62544 5.33301 3.94716 5.61396 3.44706 6.11406C2.94697 6.61415 2.66602 7.29243 2.66602 7.99967V22.6663C2.66602 23.02 2.80649 23.3591 3.05654 23.6092C3.30659 23.8592 3.64573 23.9997 3.99935 23.9997H6.66602" stroke="#28315C" stroke-width="2" stroke-linecap="round" stroke-linejoin="round"/>
<path d="M20 24H12" stroke="#28315C" stroke-width="1.45833" stroke-linecap="round" stroke-linejoin="round"/>
<path d="M25.3327 24.0003H27.9993C28.353 24.0003 28.6921 23.8598 28.9422 23.6098C29.1922 23.3598 29.3327 23.0206 29.3327 22.667V17.8003C29.3321 17.4977 29.2287 17.2043 29.0394 16.9683L24.3993 11.1683C24.2746 11.0122 24.1164 10.886 23.9364 10.7993C23.7564 10.7125 23.5592 10.6673 23.3593 10.667H18.666" stroke="#28315C" stroke-width="2" stroke-linecap="round" stroke-linejoin="round"/>
<path d="M22.6667 26.6663C24.1394 26.6663 25.3333 25.4724 25.3333 23.9997C25.3333 22.5269 24.1394 21.333 22.6667 21.333C21.1939 21.333 20 22.5269 20 23.9997C20 25.4724 21.1939 26.6663 22.6667 26.6663Z" stroke="#28315C" stroke-width="2" stroke-linecap="round" stroke-linejoin="round"/>
<path d="M9.33268 26.6663C10.8054 26.6663 11.9993 25.4724 11.9993 23.9997C11.9993 22.5269 10.8054 21.333 9.33268 21.333C7.85992 21.333 6.66602 22.5269 6.66602 23.9997C6.66602 25.4724 7.85992 26.6663 9.33268 26.6663Z" stroke="#28315C" stroke-width="2" stroke-linecap="round" stroke-linejoin="round"/>
</svg>
