<svg width="20" height="20" viewBox="0 0 20 20" fill="none" xmlns="http://www.w3.org/2000/svg">
<path d="M14 7L8.667 13L6 10M1 15.8V4.2C1 3.08 1 2.52 1.218 2.092C1.41 1.715 1.715 1.41 2.092 1.218C2.52 1 3.08 1 4.2 1H15.8C16.92 1 17.48 1 17.907 1.218C18.284 1.41 18.59 1.715 18.782 2.092C19 2.519 19 3.079 19 4.197V15.804C19 16.922 19 17.481 18.782 17.908C18.59 18.2845 18.2837 18.5904 17.907 18.782C17.48 19 16.921 19 15.803 19H4.197C3.079 19 2.519 19 2.092 18.782C1.71569 18.5903 1.40974 18.2843 1.218 17.908C1 17.48 1 16.92 1 15.8Z" stroke="#28315C" stroke-width="2" stroke-linecap="round" stroke-linejoin="round"/>
</svg>
