<svg width="20" height="20" viewBox="0 0 20 20" fill="none" xmlns="http://www.w3.org/2000/svg">
<path d="M0 10C0 4.47715 4.47715 0 10 0C15.5228 0 20 4.47715 20 10C20 15.5228 15.5228 20 10 20C4.47715 20 0 15.5228 0 10Z" fill="#BEE3FB"/>
<g clip-path="url(#clip0_520_121495)">
<path d="M9.9987 16.6667C13.6806 16.6667 16.6654 13.6819 16.6654 10C16.6654 6.31811 13.6806 3.33334 9.9987 3.33334C6.3168 3.33334 3.33203 6.31811 3.33203 10C3.33203 13.6819 6.3168 16.6667 9.9987 16.6667Z" stroke="#28315C" stroke-linecap="round" stroke-linejoin="round"/>
<path d="M8 9.99999L9.33333 11.3333L12 8.66666" stroke="#28315C" stroke-linecap="round" stroke-linejoin="round"/>
</g>
<defs>
<clipPath id="clip0_520_121495">
<rect width="16" height="16" fill="white" transform="translate(2 2)"/>
</clipPath>
</defs>
</svg>
