<svg width="32" height="32" viewBox="0 0 32 32" fill="none" xmlns="http://www.w3.org/2000/svg">
<path d="M16.7807 3.44784C16.2807 2.94771 15.6025 2.66665 14.8953 2.6665H5.33268C4.62544 2.6665 3.94716 2.94746 3.44706 3.44755C2.94697 3.94765 2.66602 4.62593 2.66602 5.33317V14.8958C2.66617 15.603 2.94722 16.2812 3.44735 16.7812L15.0527 28.3865C15.6587 28.9887 16.4783 29.3267 17.3327 29.3267C18.187 29.3267 19.0067 28.9887 19.6127 28.3865L28.386 19.6132C28.9882 19.0072 29.3262 18.1875 29.3262 17.3332C29.3262 16.4788 28.9882 15.6592 28.386 15.0532L16.7807 3.44784Z" stroke="#28315C" stroke-width="2" stroke-linecap="round" stroke-linejoin="round"/>
<path d="M10.0007 10.6668C10.3688 10.6668 10.6673 10.3684 10.6673 10.0002C10.6673 9.63197 10.3688 9.3335 10.0007 9.3335C9.63246 9.3335 9.33398 9.63197 9.33398 10.0002C9.33398 10.3684 9.63246 10.6668 10.0007 10.6668Z" fill="#28315C" stroke="#28315C" stroke-width="2" stroke-linecap="round" stroke-linejoin="round"/>
</svg>
