<svg width="32" height="32" viewBox="0 0 32 32" fill="none" xmlns="http://www.w3.org/2000/svg">
<path d="M13.666 15.667V21.667" stroke="#9B9EAD" stroke-width="1.5" stroke-linecap="round" stroke-linejoin="round"/>
<path d="M17.666 15.667V21.667" stroke="#9B9EAD" stroke-width="1.5" stroke-linecap="round" stroke-linejoin="round"/>
<path d="M22.666 10.667V24.667C22.666 25.1974 22.4553 25.7061 22.0802 26.0812C21.7052 26.4563 21.1964 26.667 20.666 26.667H10.666C10.1356 26.667 9.62687 26.4563 9.2518 26.0812C8.87673 25.7061 8.66602 25.1974 8.66602 24.667V10.667" stroke="#9B9EAD" stroke-width="1.5" stroke-linecap="round" stroke-linejoin="round"/>
<path d="M6.66602 10.667H24.666" stroke="#9B9EAD" stroke-width="1.5" stroke-linecap="round" stroke-linejoin="round"/>
<path d="M11.666 10.667V8.66699C11.666 8.13656 11.8767 7.62785 12.2518 7.25278C12.6269 6.87771 13.1356 6.66699 13.666 6.66699H17.666C18.1964 6.66699 18.7052 6.87771 19.0802 7.25278C19.4553 7.62785 19.666 8.13656 19.666 8.66699V10.667" stroke="#9B9EAD" stroke-width="1.5" stroke-linecap="round" stroke-linejoin="round"/>
</svg>
