<svg width="24" height="24" viewBox="0 0 24 24" fill="none" xmlns="http://www.w3.org/2000/svg">
<rect width="24" height="24" rx="12" fill="#202022"/>
<path d="M21.2912 11.9569C21.2912 11.8667 21.2174 11.7929 21.1271 11.7847C17.8462 11.6617 15.853 11.2433 14.4504 9.84894C13.0478 8.44634 12.6295 6.45318 12.5065 3.16405C12.5065 3.07382 12.4245 3 12.3342 3H11.9569C11.8667 3 11.7929 3.07382 11.7847 3.16405C11.6617 6.45318 11.2433 8.45455 9.84074 9.84894C8.44634 11.2433 6.44498 11.6617 3.16405 11.7847C3.07382 11.7847 3 11.8667 3 11.9569V12.3424C3 12.4327 3.07382 12.5065 3.16405 12.5147C6.44498 12.6377 8.43814 13.056 9.84074 14.4504C11.2433 15.8448 11.6535 17.838 11.7765 21.1189C11.7765 21.2092 11.8585 21.283 11.9487 21.283H12.3342C12.4245 21.283 12.4983 21.2092 12.5065 21.1189C12.6295 17.8462 13.0478 15.853 14.4422 14.4504C15.8366 13.056 17.838 12.6377 21.1189 12.5147C21.2092 12.5147 21.283 12.4327 21.283 12.3424L21.2912 11.9569Z" fill="white"/>
</svg>
