<svg width="24" height="24" viewBox="0 0 24 24" fill="none" xmlns="http://www.w3.org/2000/svg">
<path d="M10.7334 5.0755C13.0628 4.79791 15.419 5.29032 17.4423 6.47755C19.4655 7.66478 21.0446 9.48158 21.9384 11.6505C22.0217 11.875 22.0217 12.122 21.9384 12.3465C21.5709 13.2375 21.0852 14.075 20.4944 14.8365" stroke="#99A1AF" stroke-width="2" stroke-linecap="round" stroke-linejoin="round"/>
<path d="M14.0832 14.158C13.5174 14.7045 12.7595 15.0069 11.973 15C11.1864 14.9932 10.4339 14.6777 9.8777 14.1215C9.32148 13.5652 9.00597 12.8128 8.99914 12.0262C8.9923 11.2396 9.29468 10.4818 9.84116 9.91602" stroke="#99A1AF" stroke-width="2" stroke-linecap="round" stroke-linejoin="round"/>
<path d="M17.4785 17.4988C16.152 18.2846 14.672 18.7758 13.1389 18.9392C11.6058 19.1026 10.0555 18.9343 8.59316 18.4457C7.13084 17.9571 5.79072 17.1597 4.66374 16.1075C3.53676 15.0554 2.64928 13.7731 2.06153 12.3478C1.97819 12.1233 1.97819 11.8763 2.06153 11.6518C2.94816 9.50164 4.5082 7.69704 6.50753 6.50879" stroke="#99A1AF" stroke-width="2" stroke-linecap="round" stroke-linejoin="round"/>
<path d="M1.99902 2L21.999 22" stroke="#99A1AF" stroke-width="2" stroke-linecap="round" stroke-linejoin="round"/>
</svg>
