<svg width="24" height="24" viewBox="0 0 24 24" fill="none" xmlns="http://www.w3.org/2000/svg">
<path d="M2.06202 12.3484C1.97868 12.1238 1.97868 11.8769 2.06202 11.6524C2.87372 9.68421 4.25153 8.0014 6.02079 6.81726C7.79004 5.63312 9.87106 5.00098 12 5.00098C14.129 5.00098 16.21 5.63312 17.9792 6.81726C19.7485 8.0014 21.1263 9.68421 21.938 11.6524C22.0214 11.8769 22.0214 12.1238 21.938 12.3484C21.1263 14.3165 19.7485 15.9993 17.9792 17.1835C16.21 18.3676 14.129 18.9997 12 18.9997C9.87106 18.9997 7.79004 18.3676 6.02079 17.1835C4.25153 15.9993 2.87372 14.3165 2.06202 12.3484Z" stroke="#99A1AF" stroke-width="2" stroke-linecap="round" stroke-linejoin="round"/>
<path d="M11.9995 15C13.6564 15 14.9995 13.6569 14.9995 12C14.9995 10.3431 13.6564 9 11.9995 9C10.3427 9 8.99951 10.3431 8.99951 12C8.99951 13.6569 10.3427 15 11.9995 15Z" stroke="#99A1AF" stroke-width="2" stroke-linecap="round" stroke-linejoin="round"/>
</svg>
