<svg width="32" height="32" viewBox="0 0 32 32" fill="none" xmlns="http://www.w3.org/2000/svg">
<path d="M18.666 24.0002V8.00016C18.666 7.29292 18.3851 6.61464 17.885 6.11454C17.3849 5.61445 16.7066 5.3335 15.9993 5.3335H5.33268C4.62544 5.3335 3.94716 5.61445 3.44706 6.11454C2.94697 6.61464 2.66602 7.29292 2.66602 8.00016V22.6668C2.66602 23.0205 2.80649 23.3596 3.05654 23.6096C3.30659 23.8597 3.64573 24.0002 3.99935 24.0002H6.66602" stroke="#28315C" stroke-width="2" stroke-linecap="round" stroke-linejoin="round"/>
<path d="M20 24H12" stroke="#28315C" stroke-width="2.33333" stroke-linecap="round" stroke-linejoin="round"/>
<path d="M25.3327 23.9998H27.9993C28.353 23.9998 28.6921 23.8594 28.9422 23.6093C29.1922 23.3593 29.3327 23.0201 29.3327 22.6665V17.7998C29.3321 17.4973 29.2287 17.2039 29.0393 16.9678L24.3993 11.1678C24.2746 11.0117 24.1164 10.8855 23.9364 10.7988C23.7564 10.712 23.5592 10.6668 23.3593 10.6665H18.666" stroke="#28315C" stroke-width="2" stroke-linecap="round" stroke-linejoin="round"/>
<path d="M22.6667 26.6668C24.1394 26.6668 25.3333 25.4729 25.3333 24.0002C25.3333 22.5274 24.1394 21.3335 22.6667 21.3335C21.1939 21.3335 20 22.5274 20 24.0002C20 25.4729 21.1939 26.6668 22.6667 26.6668Z" stroke="#28315C" stroke-width="2" stroke-linecap="round" stroke-linejoin="round"/>
<path d="M9.33268 26.6668C10.8054 26.6668 11.9993 25.4729 11.9993 24.0002C11.9993 22.5274 10.8054 21.3335 9.33268 21.3335C7.85992 21.3335 6.66602 22.5274 6.66602 24.0002C6.66602 25.4729 7.85992 26.6668 9.33268 26.6668Z" stroke="#28315C" stroke-width="2" stroke-linecap="round" stroke-linejoin="round"/>
</svg>
