<svg width="24" height="24" viewBox="0 0 24 24" fill="none" xmlns="http://www.w3.org/2000/svg">
<path d="M9 11L11 13L15 9M21 11C21 12.1819 20.7672 13.3522 20.3149 14.4442C19.8626 15.5361 19.1997 16.5282 18.364 17.364C17.5282 18.1997 16.5361 18.8626 15.4442 19.3149C14.3522 19.7672 13.1819 20 12 20C10.8181 20 9.64778 19.7672 8.55585 19.3149C7.46392 18.8626 6.47177 18.1997 5.63604 17.364C4.80031 16.5282 4.13738 15.5361 3.68508 14.4442C3.23279 13.3522 3 12.1819 3 11C3 8.61305 3.94821 6.32387 5.63604 4.63604C7.32387 2.94821 9.61305 2 12 2C14.3869 2 16.6761 2.94821 18.364 4.63604C20.0518 6.32387 21 8.61305 21 11Z" stroke="#28315C" stroke-width="1.5" stroke-linecap="round" stroke-linejoin="round"/>
</svg>
