<svg width="347" height="60" viewBox="0 0 347 60" fill="none" xmlns="http://www.w3.org/2000/svg">
<g clip-path="url(#clip0_690_31797)">
<path d="M0.00585938 59.2443V19.1288H9.88746L10.1184 25.5051C10.1184 25.5051 14.7843 18.2878 22.6655 18.2878C25.7076 18.2878 28.2577 18.8953 30.2882 20.1129C32.3463 21.3304 33.8824 23.1554 34.924 25.5905C35.9682 28.0255 36.4877 31.0681 36.4877 34.7206V59.2719H26.315V35.4762C26.315 33.5634 25.7929 27.1293 19.3876 27.1293C12.2292 27.1293 10.2012 33.1014 10.2012 33.1014V59.2744H2.29492C1.42648 59.2443 0.670991 59.2443 0.00585938 59.2443Z" fill="#FFF7DD"/>
<path d="M64.632 59.9994C60.5759 59.9994 56.9516 59.1007 53.764 57.3033C50.5763 55.5059 48.0539 53.0433 46.2291 49.8827C44.4044 46.7523 43.5059 43.1575 43.5059 39.1007C43.5059 35.044 44.4044 31.5345 46.2291 28.3765C48.0539 25.2461 50.5462 22.7533 53.764 20.9559C56.9516 19.1585 60.5734 18.2598 64.632 18.2598C68.6905 18.2598 72.2245 19.1585 75.4121 20.9559C78.5997 22.7533 81.1222 25.216 82.9469 28.3765C84.7717 31.5069 85.6702 35.1017 85.6702 39.1007C85.6702 43.0997 84.7717 46.7523 82.9469 49.8827C81.1222 53.0131 78.6298 55.5059 75.4121 57.3033C72.2521 59.1007 68.6303 59.9994 64.632 59.9994ZM64.632 51.1002C66.7177 51.1002 68.5449 50.5781 70.1664 49.5062C71.7878 48.4342 73.0653 47.0134 73.9915 45.216C74.9177 43.4186 75.382 41.3902 75.3243 39.1007C75.382 36.8113 74.9177 34.7829 73.9915 32.9554C73.0653 31.1304 71.7878 29.7095 70.1664 28.6953C68.5424 27.6811 66.6876 27.1891 64.632 27.1891C62.5763 27.1891 60.6914 27.7113 59.0398 28.7531C57.3883 29.7974 56.1132 31.2157 55.157 33.0131C54.2308 34.8105 53.7665 36.8389 53.8242 39.1284C53.7665 41.4178 54.2308 43.4462 55.157 45.2436C56.0831 47.041 57.3883 48.4619 59.0398 49.5338C60.7215 50.5781 62.5763 51.0977 64.632 51.0977V51.1002Z" fill="#FFF7DD"/>
<path d="M138.705 59.9999C135.168 59.9999 131.981 59.1012 129.2 57.3038C126.419 55.5064 124.215 53.0437 122.591 49.9409C120.967 46.8406 120.156 43.2458 120.156 39.1866C120.156 35.1273 120.967 31.535 122.561 28.4046C124.155 25.2742 126.358 22.7814 129.139 20.984C131.92 19.1866 135.08 18.2878 138.644 18.2878C140.557 18.2878 142.412 18.5765 144.151 19.1564C145.891 19.7363 147.484 20.5472 148.905 21.5915C150.326 22.6358 151.455 23.7654 152.324 25.0106C153.192 26.2557 153.629 27.5611 153.686 28.9242L151.106 29.3008V-9.15527e-05H161.279V59.2443H151.54L151.164 49.9108L153.222 50.1418C153.107 51.417 152.672 52.6345 151.859 53.7943C151.048 54.9541 149.974 55.9984 148.641 56.9549C147.309 57.8812 145.773 58.6368 144.033 59.1866C142.324 59.7087 140.527 59.9974 138.702 59.9974L138.705 59.9999ZM140.848 51.4773C142.964 51.4773 144.819 50.9551 146.383 49.8832C147.946 48.8113 149.194 47.3603 150.062 45.5654C150.961 43.7403 151.395 41.6241 151.395 39.1891C151.395 36.754 150.961 34.6102 150.062 32.755C149.164 30.8999 147.946 29.4514 146.383 28.4372C144.819 27.3929 142.964 26.8733 140.848 26.8733C138.732 26.8733 136.935 27.3954 135.371 28.4372C133.808 29.4815 132.56 30.93 131.692 32.755C130.793 34.6102 130.359 36.754 130.359 39.1891C130.359 41.6241 130.793 43.7403 131.692 45.5654C132.59 47.3904 133.808 48.8414 135.371 49.8832C136.935 50.9551 138.762 51.4773 140.848 51.4773Z" fill="#FFF7DD"/>
<path d="M261.204 59.3024V19.1895H271.377V59.3049H261.204V59.3024Z" fill="#FFF7DD"/>
<path d="M329.133 59.94C324.816 59.94 321.048 59.0413 317.801 57.274C314.555 55.5067 312.033 53.0717 310.236 50.0266C308.439 46.9539 307.54 43.4168 307.54 39.4178C307.54 36.2874 308.032 33.4181 309.046 30.8374C310.06 28.2568 311.481 26.0251 313.305 24.1122C315.13 22.1993 317.304 20.7508 319.796 19.7065C322.319 18.6622 325.012 18.1426 327.968 18.1426C330.664 18.1426 333.156 18.6346 335.445 19.6488C337.765 20.663 339.763 22.0537 341.444 23.8235C343.153 25.5908 344.428 27.707 345.327 30.1421C346.226 32.5771 346.632 35.2155 346.572 38.0547L346.484 41.3885H314.141L312.402 34.8666H338.078L336.861 36.2297V34.49C336.715 33.0692 336.224 31.7939 335.413 30.6642C334.602 29.5346 333.558 28.6359 332.313 27.9681C331.038 27.3004 329.617 26.9815 328.054 26.9815C325.735 26.9815 323.737 27.446 322.143 28.3447C320.519 29.2434 319.302 30.5764 318.463 32.2859C317.622 33.9955 317.218 36.1418 317.218 38.6622C317.218 41.1826 317.74 43.2988 318.812 45.154C319.884 47.0092 321.392 48.43 323.333 49.4141C325.273 50.3981 327.564 50.8927 330.2 50.8927C332.024 50.8927 333.706 50.604 335.212 50.0517C336.718 49.5019 338.342 48.4878 340.081 47.0092L345.008 53.9377C343.588 55.213 341.994 56.2849 340.227 57.156C338.46 58.0547 336.605 58.72 334.72 59.2145C332.808 59.6789 330.953 59.94 329.128 59.94H329.133Z" fill="#FFF7DD"/>
<path d="M115.463 18.8707H106.392C99.0026 18.8707 93.0039 24.8704 93.0039 32.2609V59.2447H103.262V27.9406H115.463V18.8682V18.8707Z" fill="#FFF7DD"/>
<path d="M292.328 50.2597V-9.15527e-05H282.155V45.362C282.155 53.0713 288.415 59.3045 296.095 59.3045H303.399V50.2321H292.328V50.2622V50.2597Z" fill="#FFF7DD"/>
<path d="M249.438 25.593C248.394 23.1579 246.858 21.3329 244.802 20.1154C242.744 18.8979 240.194 18.2904 237.179 18.2904C230.631 18.2904 225.674 23.7404 224.195 25.4499L223.731 26.0875C223.643 25.9419 223.586 25.7687 223.5 25.5654C222.456 23.1303 220.92 21.3053 218.864 20.0878C216.806 18.8703 214.256 18.2628 211.242 18.2628C203.358 18.2628 198.695 25.48 198.695 25.48L198.464 19.1037H188.582V59.2192H198.782V33.0462C198.782 33.0462 200.841 27.0741 207.969 27.0741C214.374 27.0741 214.896 33.5081 214.896 35.421V59.2167H225.069V32.8103C225.822 31.2463 227.039 29.9409 227.33 29.6221C228.721 28.1159 230.345 27.0716 233.967 27.0716C240.372 27.0716 240.894 33.5056 240.894 35.4185V59.2142H251.067V34.6629C251.009 31.0405 250.487 27.9954 249.443 25.5905L249.438 25.593Z" fill="#FFF7DD"/>
</g>
<defs>
<clipPath id="clip0_690_31797">
<rect width="346.579" height="60" fill="white"/>
</clipPath>
</defs>
</svg>
