<svg width="185" height="32" viewBox="0 0 185 32" fill="none" xmlns="http://www.w3.org/2000/svg">
<g clip-path="url(#clip0_690_47797)">
<path d="M0.00292969 31.5973V10.2024H5.27762L5.40088 13.6031C5.40088 13.6031 7.89152 9.75391 12.0984 9.75391C13.7222 9.75391 15.0834 10.0779 16.1673 10.7273C17.2659 11.3766 18.0859 12.3499 18.6419 13.6486C19.1992 14.9473 19.4765 16.57 19.4765 18.5181V31.6121H14.0464V18.9211C14.0464 17.9008 13.7678 14.4694 10.3487 14.4694C6.52763 14.4694 5.44509 17.6545 5.44509 17.6545V31.6134H1.2248C0.761242 31.5973 0.35797 31.5973 0.00292969 31.5973Z" fill="#28315C"/>
<path d="M34.4995 32.0004C32.3345 32.0004 30.3998 31.5211 28.6983 30.5625C26.9968 29.6039 25.6503 28.2905 24.6763 26.6048C23.7023 24.9353 23.2227 23.018 23.2227 20.8544C23.2227 18.6909 23.7023 16.8191 24.6763 15.1348C25.6503 13.4653 26.9807 12.1358 28.6983 11.1772C30.3998 10.2186 32.3331 9.73926 34.4995 9.73926C36.6659 9.73926 38.5523 10.2186 40.2539 11.1772C41.9554 12.1358 43.3019 13.4492 44.2759 15.1348C45.2499 16.8044 45.7295 18.7216 45.7295 20.8544C45.7295 22.9872 45.2499 24.9353 44.2759 26.6048C43.3019 28.2744 41.9715 29.6039 40.2539 30.5625C38.5671 31.5211 36.6338 32.0004 34.4995 32.0004ZM34.4995 27.2542C35.6129 27.2542 36.5882 26.9757 37.4537 26.404C38.3192 25.8323 39.0012 25.0745 39.4956 24.1159C39.9899 23.1573 40.2378 22.0755 40.207 20.8544C40.2378 19.6334 39.9899 18.5516 39.4956 17.5769C39.0012 16.6036 38.3192 15.8458 37.4537 15.3049C36.5869 14.764 35.5968 14.5016 34.4995 14.5016C33.4023 14.5016 32.3961 14.7801 31.5145 15.3357C30.6329 15.8926 29.9523 16.6491 29.4419 17.6077C28.9475 18.5663 28.6997 19.6481 28.7305 20.8692C28.6997 22.0902 28.9475 23.172 29.4419 24.1306C29.9363 25.0892 30.6329 25.847 31.5145 26.4187C32.4122 26.9757 33.4023 27.2528 34.4995 27.2528V27.2542Z" fill="#28315C"/>
<path d="M74.0386 32C72.1509 32 70.4494 31.5207 68.9649 30.5621C67.4804 29.6034 66.3041 28.29 65.4373 26.6352C64.5704 24.9817 64.1377 23.0645 64.1377 20.8995C64.1377 18.7346 64.5704 16.8187 65.4212 15.1492C66.272 13.4796 67.4483 12.1501 68.9327 11.1915C70.4172 10.2329 72.104 9.75357 74.0065 9.75357C75.0274 9.75357 76.0175 9.90753 76.9459 10.2168C77.8744 10.5261 78.7252 10.9585 79.4835 11.5155C80.2418 12.0725 80.8447 12.6749 81.3082 13.339C81.7718 14.0031 82.0049 14.6993 82.0357 15.4263L80.6584 15.6271V0H86.0885V31.597H80.8902L80.6893 26.6191L81.7879 26.7423C81.7262 27.4225 81.4945 28.0718 81.0604 28.6903C80.6276 29.3089 80.0542 29.8659 79.3428 30.376C78.6314 30.87 77.8114 31.273 76.883 31.5662C75.9706 31.8447 75.0113 31.9987 74.0373 31.9987L74.0386 32ZM75.1828 27.4546C76.3122 27.4546 77.3023 27.1761 78.137 26.6044C78.9717 26.0327 79.6375 25.2589 80.1011 24.3016C80.5807 23.3282 80.8125 22.1996 80.8125 20.9009C80.8125 19.6022 80.5807 18.4588 80.1011 17.4694C79.6215 16.48 78.9717 15.7075 78.137 15.1666C77.3023 14.6096 76.3122 14.3325 75.1828 14.3325C74.0534 14.3325 73.0941 14.6109 72.2594 15.1666C71.4247 15.7235 70.7589 16.496 70.2953 17.4694C69.8157 18.4588 69.5839 19.6022 69.5839 20.9009C69.5839 22.1996 69.8157 23.3282 70.2953 24.3016C70.7749 25.2749 71.4247 26.0488 72.2594 26.6044C73.0941 27.1761 74.0694 27.4546 75.1828 27.4546Z" fill="#28315C"/>
<path d="M139.428 31.628V10.2344H144.858V31.6293H139.428V31.628Z" fill="#28315C"/>
<path d="M175.687 31.9677C173.383 31.9677 171.372 31.4884 169.638 30.5459C167.906 29.6033 166.559 28.3046 165.6 26.6806C164.641 25.0418 164.161 23.1554 164.161 21.0226C164.161 19.353 164.424 17.8227 164.965 16.4464C165.506 15.07 166.265 13.8798 167.239 12.8596C168.213 11.8394 169.373 11.0669 170.703 10.5099C172.05 9.95292 173.487 9.67578 175.066 9.67578C176.504 9.67578 177.835 9.9382 179.057 10.4791C180.295 11.02 181.361 11.7617 182.259 12.7056C183.171 13.6482 183.852 14.7768 184.331 16.0755C184.811 17.3742 185.028 18.7813 184.996 20.2956L184.949 22.0736H167.685L166.756 18.5952H180.462L179.812 19.3222V18.3944C179.735 17.6366 179.472 16.9565 179.039 16.354C178.607 15.7515 178.049 15.2722 177.385 14.9161C176.704 14.5599 175.946 14.3899 175.111 14.3899C173.873 14.3899 172.807 14.6376 171.956 15.1169C171.089 15.5962 170.439 16.3071 169.992 17.2189C169.543 18.1307 169.327 19.2754 169.327 20.6196C169.327 21.9638 169.606 23.0925 170.178 24.0819C170.75 25.0713 171.555 25.8291 172.591 26.3539C173.627 26.8787 174.85 27.1425 176.257 27.1425C177.231 27.1425 178.128 26.9885 178.932 26.694C179.736 26.4008 180.603 25.8599 181.531 25.0713L184.161 28.7665C183.403 29.4467 182.552 30.0184 181.609 30.4829C180.666 30.9623 179.676 31.3171 178.67 31.5808C177.649 31.8285 176.659 31.9677 175.685 31.9677H175.687Z" fill="#28315C"/>
<path d="M61.6328 10.0638H56.7909C52.8466 10.0638 49.6445 13.2637 49.6445 17.2053V31.5967H55.1202V14.9011H61.6328V10.0625V10.0638Z" fill="#28315C"/>
<path d="M156.041 26.8052V0H150.611V24.1931C150.611 28.3048 153.953 31.6291 158.052 31.6291H161.951V26.7905H156.041V26.8066V26.8052Z" fill="#28315C"/>
<path d="M133.147 13.6497C132.59 12.351 131.77 11.3777 130.673 10.7283C129.574 10.079 128.213 9.75496 126.604 9.75496C123.108 9.75496 120.462 12.6616 119.673 13.5734L119.425 13.9134C119.378 13.8358 119.348 13.7434 119.302 13.635C118.745 12.3363 117.925 11.3629 116.827 10.7136C115.729 10.0642 114.368 9.74023 112.759 9.74023C108.55 9.74023 106.061 13.5894 106.061 13.5894L105.938 10.1888H100.663V31.5837H106.108V17.6248C106.108 17.6248 107.207 14.4396 111.011 14.4396C114.431 14.4396 114.709 17.8711 114.709 18.8913V31.5823H120.139V17.4989C120.541 16.6648 121.191 15.9686 121.347 15.7986C122.089 14.9952 122.956 14.4383 124.889 14.4383C128.308 14.4383 128.587 17.8698 128.587 18.89V31.581H134.017V18.487C133.986 16.555 133.707 14.931 133.15 13.6484L133.147 13.6497Z" fill="#28315C"/>
</g>
<defs>
<clipPath id="clip0_690_47797">
<rect width="185" height="32" fill="white"/>
</clipPath>
</defs>
</svg>
