<svg width="48" height="24" viewBox="0 0 48 24" fill="none" xmlns="http://www.w3.org/2000/svg">
<g clip-path="url(#clip0_690_31825)">
<path d="M19.7657 11.9685C19.7828 8.12844 22.9295 5 26.8826 5C30.8014 5 34.0446 8.14557 33.9995 12C33.9995 15.8545 30.8014 19 26.8826 19C22.9743 19 19.7829 15.9155 19.7657 12.0317V17.2279H17.2432L14 7.03797H19.7657V11.9685ZM24.225 12C24.225 13.4177 25.4412 14.6139 26.8826 14.6139C28.369 14.6139 29.5402 13.4177 29.5402 12C29.5402 10.5823 28.324 9.38608 26.8826 9.38608C25.4412 9.38608 24.225 10.5823 24.225 12Z" fill="#0076EB"/>
</g>
<defs>
<clipPath id="clip0_690_31825">
<rect width="20" height="14" fill="white" transform="translate(14 5)"/>
</clipPath>
</defs>
</svg>
