<svg width="48" height="24" viewBox="0 0 48 24" fill="none" xmlns="http://www.w3.org/2000/svg">
<path d="M33.3789 11.4248V18H37.0318V14.1036H41.1717C42.9129 14.0914 44.3923 12.9773 44.9524 11.4248H33.3789Z" fill="#37A72E"/>
<path d="M32.8906 6.00583C33.1037 8.69069 35.6485 10.8154 38.7535 10.8154C38.7657 10.8154 45.1034 10.8154 45.1034 10.8154C45.1521 10.5719 45.1765 10.3162 45.1765 10.0544C45.1765 7.82618 43.3805 6.02409 41.1583 6.00583H32.8906Z" fill="url(#paint0_linear_690_31809)"/>
<path d="M27.4844 10.7485C27.527 10.6754 27.594 10.6328 27.6793 10.6328C27.801 10.6328 27.8923 10.7302 27.8984 10.8459V17.9386H31.5513V6.00583H27.8984C27.4357 6.02409 26.9121 6.35894 26.7173 6.77902L23.8133 13.0133C23.8072 13.0376 23.795 13.062 23.7829 13.0863C23.7402 13.1472 23.6672 13.1898 23.5819 13.1898C23.448 13.1898 23.3384 13.0802 23.3384 12.9463V6.00583H19.6855V17.9386H23.3384C23.795 17.9142 24.3064 17.5794 24.5013 17.1654L27.4844 10.7667C27.4783 10.7607 27.4844 10.7546 27.4844 10.7485Z" fill="#37A72E"/>
<path d="M13.8488 10.9557L11.7119 17.9388H9.08183L6.95099 10.9497C6.93273 10.8401 6.83532 10.7548 6.71355 10.7548C6.57961 10.7548 6.47612 10.8644 6.47612 10.9923V17.9327H2.82324V6.00002H5.95863H6.89011C7.5598 6.00002 8.26603 6.52359 8.46085 7.16285L10.2386 12.977C10.3299 13.2692 10.4699 13.2631 10.5612 12.977L12.339 7.16285C12.5338 6.51751 13.24 6.00002 13.9097 6.00002H14.8412H17.9766V17.9327H14.3237V10.9923C14.3237 10.9923 14.3237 10.9923 14.3237 10.9862C14.3237 10.8523 14.2141 10.7488 14.0863 10.7488C13.9645 10.7548 13.8671 10.8401 13.8488 10.9557Z" fill="#37A72E"/>
<defs>
<linearGradient id="paint0_linear_690_31809" x1="32.8921" y1="8.41064" x2="45.1757" y2="8.41064" gradientUnits="userSpaceOnUse">
<stop stop-color="#00A0E5"/>
<stop offset="1" stop-color="#0077C3"/>
</linearGradient>
</defs>
</svg>
