<svg width="24" height="24" viewBox="0 0 24 24" fill="none" xmlns="http://www.w3.org/2000/svg">
<path d="M11.5229 2.29587C11.5667 2.20733 11.6344 2.1328 11.7183 2.0807C11.8023 2.02859 11.8991 2.00098 11.9979 2.00098C12.0967 2.00098 12.1935 2.02859 12.2774 2.0807C12.3614 2.1328 12.4291 2.20733 12.4729 2.29587L14.7829 6.97487C14.9351 7.28284 15.1597 7.54928 15.4375 7.75132C15.7153 7.95337 16.038 8.08498 16.3779 8.13487L21.5439 8.89087C21.6418 8.90505 21.7337 8.94634 21.8094 9.01007C21.885 9.0738 21.9413 9.15742 21.9719 9.25148C22.0025 9.34553 22.0062 9.44628 21.9825 9.54231C21.9588 9.63834 21.9087 9.72582 21.8379 9.79487L18.1019 13.4329C17.8555 13.673 17.6712 13.9694 17.5647 14.2965C17.4583 14.6236 17.433 14.9718 17.4909 15.3109L18.3729 20.4509C18.3902 20.5487 18.3796 20.6494 18.3424 20.7416C18.3052 20.8337 18.2428 20.9135 18.1624 20.9719C18.0821 21.0303 17.9869 21.0649 17.8878 21.0718C17.7886 21.0787 17.6896 21.0576 17.6019 21.0109L12.9839 18.5829C12.6796 18.4231 12.3411 18.3396 11.9974 18.3396C11.6537 18.3396 11.3152 18.4231 11.0109 18.5829L6.39389 21.0109C6.30622 21.0573 6.20729 21.0782 6.10834 21.0711C6.0094 21.0641 5.91441 21.0294 5.83419 20.9711C5.75397 20.9127 5.69173 20.8331 5.65455 20.7411C5.61737 20.6491 5.60675 20.5486 5.62389 20.4509L6.50489 15.3119C6.56309 14.9726 6.53788 14.6243 6.43143 14.2969C6.32499 13.9696 6.1405 13.673 5.89389 13.4329L2.15789 9.79587C2.08649 9.7269 2.03589 9.63927 2.01186 9.54294C1.98783 9.44662 1.99133 9.34549 2.02197 9.25106C2.05261 9.15663 2.10916 9.07271 2.18517 9.00885C2.26118 8.94499 2.3536 8.90377 2.45189 8.88987L7.61689 8.13487C7.95715 8.08537 8.28028 7.95393 8.55848 7.75186C8.83667 7.54979 9.0616 7.28314 9.21389 6.97487L11.5229 2.29587Z" fill="#FDC700" stroke="#FDC700" stroke-width="1.94613" stroke-linecap="round" stroke-linejoin="round"/>
</svg>
