<svg width="24" height="24" viewBox="0 0 24 24" fill="none" xmlns="http://www.w3.org/2000/svg">
<g clip-path="url(#clip0_690_31777)">
<path d="M0 0H24V16.0689C23.2784 15.2842 22.5442 14.5105 21.8211 13.7289C22.5142 12.2116 22.6374 10.4053 21.9632 8.85947C21.2605 7.17947 19.7542 5.95737 18.1011 5.2721C15.5416 4.21105 12.6347 4.21421 9.98368 4.92C7.36895 5.62421 4.88053 7.04842 3.20526 9.20842C2.07632 10.6595 1.36579 12.5337 1.64842 14.3874C1.88053 16.0974 2.97 17.6005 4.38632 18.5463C4.19211 20.3653 3.99 22.1826 3.79105 24H0V0Z" fill="#005BFF"/>
<path d="M9.98329 4.91999C12.6343 4.2142 15.5412 4.21104 18.1007 5.27209C19.7538 5.95736 21.2601 7.17946 21.9628 8.85946C22.637 10.4053 22.5138 12.2116 21.8207 13.7289C20.897 15.7468 19.1933 17.321 17.278 18.3931C14.9601 19.68 12.2791 20.321 9.62961 20.1853C7.78382 20.0842 5.93013 19.5837 4.38592 18.5463C2.96961 17.6005 1.88013 16.0974 1.64803 14.3874C1.3654 12.5337 2.07592 10.6595 3.20487 9.20841C4.88013 7.04841 7.36855 5.6242 9.98329 4.91999ZM12.328 8.09052C10.4807 8.34473 8.67277 9.04104 7.2075 10.2079C6.20961 11.0226 5.26855 12.0995 5.12645 13.4305C5.03013 14.2831 5.57013 15.0568 6.24434 15.521C7.58645 16.451 9.28855 16.6926 10.888 16.6137C13.2991 16.4589 15.7196 15.5431 17.4549 13.83C18.2191 13.05 18.9059 12.0458 18.8775 10.9089C18.7843 10.091 18.2491 9.37894 17.5449 8.96999C15.9975 8.02736 14.0933 7.87104 12.328 8.09052Z" fill="#FFF7DD"/>
<path d="M12.3284 8.09053C14.0936 7.87106 15.9979 8.02737 17.5452 8.97001C18.2494 9.37895 18.7847 10.0911 18.8779 10.909C18.9063 12.0458 18.2194 13.05 17.4552 13.83C15.72 15.5432 13.2994 16.459 10.8884 16.6137C9.28891 16.6926 7.5868 16.4511 6.2447 15.5211C5.57049 15.0568 5.03049 14.2832 5.12681 13.4305C5.26891 12.0995 6.20996 11.0226 7.20786 10.2079C8.67312 9.04106 10.481 8.34474 12.3284 8.09053ZM17.2784 18.3932C19.1936 17.3211 20.8973 15.7468 21.821 13.729C22.5442 14.5105 23.2784 15.2842 24 16.069V24H3.79102C3.98996 22.1826 4.19207 20.3653 4.38628 18.5463C5.93049 19.5837 7.78417 20.0842 9.62996 20.1853C12.2794 20.3211 14.9605 19.68 17.2784 18.3932Z" fill="#F91155"/>
</g>
<defs>
<clipPath id="clip0_690_31777">
<rect width="24" height="24" rx="4" fill="white"/>
</clipPath>
</defs>
</svg>
