<svg width="64" height="64" viewBox="0 0 64 64" fill="none" xmlns="http://www.w3.org/2000/svg">
<path d="M19 46.6286V17.3714C19 17.0077 19.1422 16.6589 19.3954 16.4017C19.6486 16.1445 19.992 16 20.35 16H26.65C27.008 16 27.3514 16.1445 27.6046 16.4017C27.8578 16.6589 28 17.0077 28 17.3714V46.6286C28 46.9923 27.8578 47.3411 27.6046 47.5983C27.3514 47.8555 27.008 48 26.65 48H20.35C19.992 48 19.6486 47.8555 19.3954 47.5983C19.1422 47.3411 19 46.9923 19 46.6286ZM37 46.6286V17.3714C37 17.0077 37.1422 16.6589 37.3954 16.4017C37.6486 16.1445 37.992 16 38.35 16H44.65C45.008 16 45.3514 16.1445 45.6046 16.4017C45.8578 16.6589 46 17.0077 46 17.3714V46.6286C46 46.9923 45.8578 47.3411 45.6046 47.5983C45.3514 47.8555 45.008 48 44.65 48H38.35C37.992 48 37.6486 47.8555 37.3954 47.5983C37.1422 47.3411 37 46.9923 37 46.6286Z" fill="#FFF7DD" stroke="#FFF7DD" stroke-width="1.5"/>
</svg>
