<svg width="460" height="80" viewBox="0 0 460 80" fill="none" xmlns="http://www.w3.org/2000/svg">
<g clip-path="url(#clip0_317_18718)">
<path d="M0.0078125 78.9924V25.5051H13.1233L13.4297 34.0068C13.4297 34.0068 19.6227 24.3838 30.0831 24.3838C34.1206 24.3838 37.5053 25.1938 40.2003 26.8172C42.932 28.4405 44.9708 30.8739 46.3533 34.1206C47.7391 37.3673 48.4287 41.4241 48.4287 46.2942V79.0292H34.9268V47.3017C34.9268 44.7511 34.2339 36.1724 25.7323 36.1724C16.2314 36.1724 13.5397 44.1353 13.5397 44.1353V79.0326H3.04598C1.89334 78.9924 0.890615 78.9924 0.0078125 78.9924Z" fill="#87CCF8"/>
<path d="M85.783 80.0006C80.3995 80.0006 75.5891 78.8023 71.3583 76.4057C67.1275 74.0092 63.7795 70.7256 61.3577 66.5116C58.9358 62.3377 57.7432 57.5446 57.7432 52.1356C57.7432 46.7266 58.9358 42.0473 61.3577 37.8366C63.7795 33.6627 67.0875 30.339 71.3583 27.9425C75.5891 25.5459 80.3962 24.3477 85.783 24.3477C91.1697 24.3477 95.8602 25.5459 100.091 27.9425C104.322 30.339 107.67 33.6226 110.092 37.8366C112.514 42.0105 113.706 46.8036 113.706 52.1356C113.706 57.4676 112.514 62.3377 110.092 66.5116C107.67 70.6855 104.362 74.0092 100.091 76.4057C95.8969 78.8023 91.0898 80.0006 85.783 80.0006ZM85.783 68.135C88.5513 68.135 90.9765 67.4387 93.1286 66.0095C95.2806 64.5803 96.9762 62.6858 98.2055 60.2892C99.4348 57.8927 100.051 55.1882 99.9744 52.1356C100.051 49.083 99.4348 46.3785 98.2055 43.9418C96.9762 41.5084 95.2806 39.614 93.1286 38.2617C90.9732 36.9095 88.5113 36.2534 85.783 36.2534C83.0546 36.2534 80.5528 36.9496 78.3608 38.3387C76.1687 39.7311 74.4764 41.6222 73.2072 44.0188C71.9779 46.4154 71.3616 49.1198 71.4383 52.1724C71.3616 55.225 71.9779 57.9295 73.2072 60.3261C74.4365 62.7226 76.1687 64.6171 78.3608 66.0463C80.5928 67.4387 83.0546 68.1316 85.783 68.1316V68.135Z" fill="#87CCF8"/>
<path d="M184.097 80C179.403 80 175.172 78.8017 171.481 76.4052C167.79 74.0086 164.865 70.7251 162.71 66.588C160.555 62.4543 159.479 57.6612 159.479 52.2489C159.479 46.8365 160.555 42.0468 162.67 37.8729C164.785 33.699 167.71 30.3753 171.401 27.9787C175.092 25.5822 179.287 24.3839 184.017 24.3839C186.556 24.3839 189.017 24.7688 191.326 25.542C193.635 26.3152 195.75 27.3963 197.636 28.7888C199.521 30.1812 201.02 31.6874 202.173 33.3476C203.325 35.0077 203.905 36.7483 203.982 38.5658L200.557 39.0678V0H214.059V78.9925H201.133L200.634 66.5478L203.365 66.8558C203.212 68.5561 202.636 70.1795 201.557 71.7259C200.481 73.2722 199.055 74.6647 197.286 75.9399C195.517 77.175 193.478 78.1825 191.169 78.9155C188.901 79.6117 186.516 79.9967 184.094 79.9967L184.097 80ZM186.942 68.6365C189.75 68.6365 192.212 67.9403 194.288 66.511C196.363 65.0818 198.019 63.1471 199.171 60.7539C200.364 58.3206 200.94 55.4989 200.94 52.2522C200.94 49.0055 200.364 46.147 199.171 43.6735C197.979 41.1999 196.363 39.2687 194.288 37.9164C192.212 36.524 189.75 35.8311 186.942 35.8311C184.134 35.8311 181.748 36.5273 179.673 37.9164C177.598 39.3088 175.942 41.2401 174.789 43.6735C173.597 46.147 173.02 49.0055 173.02 52.2522C173.02 55.4989 173.597 58.3206 174.789 60.7539C175.982 63.1873 177.598 65.122 179.673 66.511C181.748 67.9403 184.174 68.6365 186.942 68.6365Z" fill="#87CCF8"/>
<path d="M346.686 79.0699V25.5859H360.187V79.0732H346.686V79.0699Z" fill="#87CCF8"/>
<path d="M436.845 79.9193C431.115 79.9193 426.115 78.7211 421.804 76.3647C417.497 74.0083 414.149 70.7616 411.763 66.7015C409.378 62.6046 408.186 57.8885 408.186 52.5565C408.186 48.3826 408.838 44.5568 410.184 41.1159C411.53 37.6751 413.416 34.6995 415.838 32.149C418.259 29.5984 421.144 27.6671 424.452 26.2747C427.8 24.8823 431.375 24.1895 435.299 24.1895C438.877 24.1895 442.185 24.8455 445.223 26.1977C448.301 27.55 450.953 29.4043 453.185 31.764C455.454 34.1204 457.146 36.9421 458.339 40.1888C459.531 43.4355 460.071 46.9534 459.991 50.739L459.874 55.184H416.947L414.638 46.4881H448.718L447.102 48.3056V45.986C446.909 44.0916 446.256 42.3912 445.18 40.885C444.104 39.3788 442.718 38.1805 441.066 37.2902C439.373 36.3998 437.488 35.9747 435.412 35.9747C432.334 35.9747 429.683 36.594 427.567 37.7922C425.412 38.9905 423.796 40.7678 422.683 43.0472C421.568 45.3266 421.031 48.1884 421.031 51.549C421.031 54.9095 421.724 57.7311 423.147 60.2047C424.569 62.6782 426.571 64.5727 429.146 65.8848C431.721 67.1969 434.763 67.8562 438.261 67.8562C440.683 67.8562 442.915 67.4713 444.913 66.735C446.912 66.0019 449.068 64.6497 451.376 62.6782L457.916 71.9163C456.03 73.6167 453.915 75.0459 451.569 76.2074C449.224 77.4056 446.762 78.2926 444.261 78.952C441.722 79.5712 439.26 79.9193 436.838 79.9193H436.845Z" fill="#87CCF8"/>
<path d="M153.248 25.1606H141.209C131.401 25.1606 123.439 33.1602 123.439 43.0142V78.9926H137.055V37.2538H153.248V25.1572V25.1606Z" fill="#87CCF8"/>
<path d="M387.994 67.0131V0H374.492V60.4828C374.492 70.7619 382.801 79.0728 392.994 79.0728H402.689V66.9763H387.994V67.0164V67.0131Z" fill="#87CCF8"/>
<path d="M331.068 34.1233C329.682 30.8765 327.644 28.4432 324.915 26.8198C322.184 25.1964 318.799 24.3864 314.798 24.3864C306.107 24.3864 299.527 31.6531 297.565 33.9325L296.949 34.7826C296.832 34.5885 296.756 34.3576 296.642 34.0864C295.257 30.8397 293.218 28.4063 290.489 26.783C287.758 25.1596 284.373 24.3496 280.372 24.3496C269.908 24.3496 263.719 33.9726 263.719 33.9726L263.412 25.4709H250.297V78.9582H263.835V44.0609C263.835 44.0609 266.567 36.0981 276.028 36.0981C284.53 36.0981 285.223 44.6768 285.223 47.2273V78.9549H298.724V43.7463C299.724 41.661 301.34 39.9205 301.726 39.4954C303.572 37.4871 305.727 36.0947 310.534 36.0947C319.036 36.0947 319.728 44.6734 319.728 47.224V78.9515H333.23V46.2165C333.154 41.3866 332.461 37.3265 331.075 34.1199L331.068 34.1233Z" fill="#87CCF8"/>
</g>
<defs>
<clipPath id="clip0_317_18718">
<rect width="460" height="80" fill="white"/>
</clipPath>
</defs>
</svg>
