<svg width="32" height="32" viewBox="0 0 32 32" fill="none" xmlns="http://www.w3.org/2000/svg">
<path d="M26.6667 10.666H5.33333C4.59695 10.666 4 11.263 4 11.9993V14.666C4 15.4024 4.59695 15.9993 5.33333 15.9993H26.6667C27.403 15.9993 28 15.4024 28 14.666V11.9993C28 11.263 27.403 10.666 26.6667 10.666Z" stroke="#FFF7DD" stroke-width="2" stroke-linecap="round" stroke-linejoin="round"/>
<path d="M16 10.666V27.9993" stroke="#FFF7DD" stroke-width="2" stroke-linecap="round" stroke-linejoin="round"/>
<path d="M25.3346 16V25.3333C25.3346 26.0406 25.0537 26.7189 24.5536 27.219C24.0535 27.719 23.3752 28 22.668 28H9.33464C8.62739 28 7.94911 27.719 7.44902 27.219C6.94892 26.7189 6.66797 26.0406 6.66797 25.3333V16" stroke="#FFF7DD" stroke-width="2" stroke-linecap="round" stroke-linejoin="round"/>
<path d="M10.0013 10.6663C9.11725 10.6663 8.2694 10.3151 7.64428 9.68996C7.01916 9.06484 6.66797 8.21699 6.66797 7.33294C6.66797 6.44888 7.01916 5.60104 7.64428 4.97592C8.2694 4.3508 9.11725 3.99961 10.0013 3.99961C11.2875 3.9772 12.548 4.60129 13.6183 5.79049C14.6886 6.97969 15.519 8.67881 16.0013 10.6663C16.4836 8.67881 17.314 6.97969 18.3843 5.79049C19.4546 4.60129 20.7151 3.9772 22.0013 3.99961C22.8854 3.99961 23.7332 4.3508 24.3583 4.97592C24.9834 5.60104 25.3346 6.44888 25.3346 7.33294C25.3346 8.21699 24.9834 9.06484 24.3583 9.68996C23.7332 10.3151 22.8854 10.6663 22.0013 10.6663" stroke="#FFF7DD" stroke-width="2" stroke-linecap="round" stroke-linejoin="round"/>
</svg>
