<svg width="24" height="24" viewBox="0 0 24 24" fill="none" xmlns="http://www.w3.org/2000/svg">
<path d="M6 18H14" stroke="#28315C" stroke-width="2" stroke-linecap="round" stroke-linejoin="round"/>
<path d="M3 22H21" stroke="#28315C" stroke-width="2" stroke-linecap="round" stroke-linejoin="round"/>
<path d="M14 22C15.8565 22 17.637 21.2625 18.9497 19.9497C20.2625 18.637 21 16.8565 21 15C21 13.1435 20.2625 11.363 18.9497 10.0503C17.637 8.7375 15.8565 8 14 8H13" stroke="#28315C" stroke-width="2" stroke-linecap="round" stroke-linejoin="round"/>
<path d="M9 14H11" stroke="#28315C" stroke-width="2" stroke-linecap="round" stroke-linejoin="round"/>
<path d="M9 12C8.46957 12 7.96086 11.7893 7.58579 11.4142C7.21071 11.0391 7 10.5304 7 10V6H13V10C13 10.5304 12.7893 11.0391 12.4142 11.4142C12.0391 11.7893 11.5304 12 11 12H9Z" stroke="#28315C" stroke-width="2" stroke-linecap="round" stroke-linejoin="round"/>
<path d="M11.9961 6V3C11.9961 2.73478 11.8907 2.48043 11.7032 2.29289C11.5157 2.10536 11.2613 2 10.9961 2H8.99609C8.73088 2 8.47652 2.10536 8.28899 2.29289C8.10145 2.48043 7.99609 2.73478 7.99609 3V6" stroke="#28315C" stroke-width="2" stroke-linecap="round" stroke-linejoin="round"/>
</svg>
