<svg width="24" height="24" viewBox="0 0 24 24" fill="none" xmlns="http://www.w3.org/2000/svg">
<path d="M19.998 12.9995C19.998 17.9995 16.498 20.4995 12.338 21.9495C12.1202 22.0233 11.8836 22.0198 11.668 21.9395C7.49805 20.4995 3.99805 17.9995 3.99805 12.9995V5.99947C3.99805 5.73426 4.1034 5.4799 4.29094 5.29237C4.47848 5.10483 4.73283 4.99947 4.99805 4.99947C6.99805 4.99947 9.49805 3.79947 11.238 2.27947C11.4499 2.09847 11.7194 1.99902 11.998 1.99902C12.2767 1.99902 12.5462 2.09847 12.758 2.27947C14.508 3.80947 16.998 4.99947 18.998 4.99947C19.2633 4.99947 19.5176 5.10483 19.7052 5.29237C19.8927 5.4799 19.998 5.73426 19.998 5.99947V12.9995Z" stroke="#9B9EAD" stroke-width="1.5" stroke-linecap="round" stroke-linejoin="round"/>
</svg>
