<svg width="54" height="54" viewBox="0 0 54 54" fill="none" xmlns="http://www.w3.org/2000/svg">
<path d="M34.8222 29.0024L38.231 48.1859C38.2691 48.4118 38.2374 48.644 38.1401 48.8514C38.0428 49.0588 37.8844 49.2315 37.6863 49.3465C37.4881 49.4615 37.2596 49.5132 37.0313 49.4948C36.8029 49.4764 36.5856 49.3887 36.4084 49.2434L28.3535 43.1977C27.9646 42.9072 27.4922 42.7502 27.0068 42.7502C26.5214 42.7502 26.0491 42.9072 25.6602 43.1977L17.5917 49.2412C17.4147 49.3862 17.1976 49.4737 16.9696 49.4922C16.7415 49.5106 16.5132 49.459 16.3152 49.3444C16.1172 49.2297 15.9588 49.0574 15.8613 48.8504C15.7637 48.6435 15.7316 48.4116 15.7692 48.1859L19.1757 29.0024" stroke="#FFF7DD" stroke-width="4" stroke-linecap="round" stroke-linejoin="round"/>
<path d="M27 31.5002C34.4558 31.5002 40.5 25.4561 40.5 18.0002C40.5 10.5444 34.4558 4.50024 27 4.50024C19.5442 4.50024 13.5 10.5444 13.5 18.0002C13.5 25.4561 19.5442 31.5002 27 31.5002Z" stroke="#FFF7DD" stroke-width="4" stroke-linecap="round" stroke-linejoin="round"/>
</svg>
