<svg width="32" height="32" viewBox="0 0 32 32" fill="none" xmlns="http://www.w3.org/2000/svg">
<path d="M18.666 2.6665V10.6665C18.6658 11.1138 18.7781 11.554 18.9926 11.9465L26.3393 25.3865C26.5615 25.7926 26.6742 26.2496 26.6662 26.7125C26.6582 27.1754 26.5298 27.6283 26.2937 28.0265C26.0576 28.4247 25.7219 28.7546 25.3196 28.9837C24.9173 29.2129 24.4623 29.3333 23.9993 29.3332H7.99932C7.53635 29.3333 7.08133 29.2129 6.67904 28.9837C6.27674 28.7546 5.94101 28.4247 5.7049 28.0265C5.46879 27.6283 5.34042 27.1754 5.33243 26.7125C5.32444 26.2496 5.43709 25.7926 5.65932 25.3865L13.006 11.9465C13.2205 11.554 13.3328 11.1138 13.3326 10.6665V2.6665" stroke="#FFF7DD" stroke-width="2" stroke-linecap="round" stroke-linejoin="round"/>
<path d="M8.60156 19.9998H23.3936" stroke="#FFF7DD" stroke-width="2" stroke-linecap="round" stroke-linejoin="round"/>
<path d="M11.332 2.6665H20.6654" stroke="#FFF7DD" stroke-width="2" stroke-linecap="round" stroke-linejoin="round"/>
</svg>
