<svg width="54" height="54" viewBox="0 0 54 54" fill="none" xmlns="http://www.w3.org/2000/svg">
<path d="M24.747 45.0002C20.7961 45.0122 16.985 43.5389 14.0696 40.8724C11.1542 38.206 9.34744 34.5412 9.00762 30.605C8.6678 26.6687 9.81977 22.7486 12.235 19.6219C14.6503 16.4953 18.1525 14.3906 22.047 13.7252C34.872 11.2502 38.247 10.0802 42.747 4.50024C44.997 9.00024 47.247 13.9052 47.247 22.5002C47.247 34.8752 36.492 45.0002 24.747 45.0002Z" stroke="#FFF7DD" stroke-width="4" stroke-linecap="round" stroke-linejoin="round"/>
<path d="M4.5 47.25C4.5 40.5 8.6625 35.19 15.93 33.75C21.375 32.67 27 29.25 29.25 27" stroke="#FFF7DD" stroke-width="4" stroke-linecap="round" stroke-linejoin="round"/>
</svg>
