<svg width="54" height="54" viewBox="0 0 54 54" fill="none" xmlns="http://www.w3.org/2000/svg">
<path d="M45 29.25C45 40.5 37.125 46.125 27.765 49.3875C27.2749 49.5536 26.7425 49.5457 26.2575 49.365C16.875 46.125 9 40.5 9 29.25V13.5C9 12.9033 9.23705 12.331 9.65901 11.909C10.081 11.4871 10.6533 11.25 11.25 11.25C15.75 11.25 21.375 8.55003 25.29 5.13003C25.7667 4.72278 26.373 4.49902 27 4.49902C27.627 4.49902 28.2333 4.72278 28.71 5.13003C32.6475 8.57253 38.25 11.25 42.75 11.25C43.3467 11.25 43.919 11.4871 44.341 11.909C44.7629 12.331 45 12.9033 45 13.5V29.25Z" stroke="#FFF7DD" stroke-width="4" stroke-linecap="round" stroke-linejoin="round"/>
</svg>
