<svg width="32" height="32" viewBox="0 0 32 32" fill="none" xmlns="http://www.w3.org/2000/svg">
<path d="M8 23.9998H18.6667" stroke="#FFF7DD" stroke-width="2" stroke-linecap="round" stroke-linejoin="round"/>
<path d="M4 29.3333H28" stroke="#FFF7DD" stroke-width="2" stroke-linecap="round" stroke-linejoin="round"/>
<path d="M18.6654 29.3332C21.1407 29.3332 23.5147 28.3498 25.265 26.5995C27.0154 24.8492 27.9987 22.4752 27.9987 19.9998C27.9987 17.5245 27.0154 15.1505 25.265 13.4002C23.5147 11.6498 21.1407 10.6665 18.6654 10.6665H17.332" stroke="#FFF7DD" stroke-width="2" stroke-linecap="round" stroke-linejoin="round"/>
<path d="M12 18.6665H14.6667" stroke="#FFF7DD" stroke-width="2" stroke-linecap="round" stroke-linejoin="round"/>
<path d="M11.9987 15.9998C11.2915 15.9998 10.6132 15.7188 10.1131 15.2187C9.61298 14.7186 9.33203 14.0403 9.33203 13.3331V7.99976H17.332V13.3331C17.332 14.0403 17.0511 14.7186 16.551 15.2187C16.0509 15.7188 15.3726 15.9998 14.6654 15.9998H11.9987Z" stroke="#FFF7DD" stroke-width="2" stroke-linecap="round" stroke-linejoin="round"/>
<path d="M16.0013 7.99984V3.99984C16.0013 3.64622 15.8608 3.30708 15.6108 3.05703C15.3607 2.80698 15.0216 2.6665 14.668 2.6665H12.0013C11.6477 2.6665 11.3085 2.80698 11.0585 3.05703C10.8084 3.30708 10.668 3.64622 10.668 3.99984V7.99984" stroke="#FFF7DD" stroke-width="2" stroke-linecap="round" stroke-linejoin="round"/>
</svg>
