<svg width="62" height="24" viewBox="0 0 62 24" fill="none" xmlns="http://www.w3.org/2000/svg">
<path d="M12.5261 11.9977L10.1796 13.3514L8 17.1282L16.8852 11.9977H12.5261Z" fill="#8F4794"/>
<path d="M19.2311 8.13095L16.8846 9.48466L14.7051 13.2615L23.5902 8.13095H19.2311Z" fill="#E40646"/>
<path d="M16.8846 6.7769L14.7051 3.00005V10.7388V13.2612V20.9999L16.8846 17.223V6.7769Z" fill="#F9B429"/>
<path d="M14.7051 3.00005L16.8846 6.7769L19.2311 8.13061H23.5902L14.7051 3.00005Z" fill="#EF8019"/>
<path d="M14.7051 10.7393V21.0004L16.8846 17.2236V14.5161L14.7051 10.7393Z" fill="#78B72A"/>
<path d="M19.2311 15.8695L16.8846 17.2232L14.7051 21.0001L23.5902 15.8695H19.2311Z" fill="#00853F"/>
<path d="M8 6.87167V17.1283L10.1796 13.3559V10.644L8 6.87167Z" fill="#5B57A2"/>
<path d="M14.7056 10.7388L14.7101 10.7433L8 6.87167L10.1796 10.644L19.2317 15.8693H23.5908L14.7056 10.7388Z" fill="#0698D6"/>
<path d="M49.4297 13.6819H49.7095V14.1557H49.9712C50.093 14.1557 50.1923 14.1693 50.2735 14.2009C50.3548 14.2325 50.4179 14.2731 50.4631 14.3227C50.5127 14.3723 50.5443 14.431 50.5668 14.4987C50.5849 14.5664 50.5984 14.6341 50.5984 14.7017C50.5984 14.7739 50.5894 14.8416 50.5668 14.9093C50.5443 14.977 50.5082 15.0357 50.4585 15.0898C50.4089 15.144 50.3412 15.1846 50.2555 15.2162C50.1697 15.2477 50.066 15.2658 49.9441 15.2658H49.4342V13.6819H49.4297ZM49.7095 14.4175V14.9996H49.9125C50.0524 14.9996 50.1517 14.977 50.2104 14.9274C50.269 14.8777 50.2961 14.8055 50.2961 14.7108C50.2961 14.616 50.269 14.5438 50.2104 14.4942C50.1517 14.4445 50.0524 14.422 49.917 14.422H49.7095V14.4175ZM50.8963 13.6819H51.176V15.2613H50.8963V13.6819Z" fill="#FFF7DD"/>
<path d="M52.5213 14.4445L53.1215 15.2613H52.7785L52.3137 14.6205L51.8444 15.2613H51.5195L52.1152 14.4581L51.5511 13.6819H51.8941L52.3228 14.2776L52.7605 13.6819H53.0854L52.5213 14.4445Z" fill="#FFF7DD"/>
<path d="M28.0605 15.0351C27.9928 15.1208 27.9025 15.1885 27.7987 15.2337C27.6904 15.2788 27.5776 15.3013 27.4558 15.3013C27.3294 15.3013 27.2166 15.2833 27.1128 15.2427C27.009 15.2021 26.9188 15.1479 26.8466 15.0757C26.7699 15.0035 26.7157 14.9178 26.6706 14.814C26.63 14.7102 26.6074 14.5974 26.6074 14.4756C26.6074 14.3628 26.6255 14.2545 26.6661 14.1507C26.7067 14.0514 26.7608 13.9612 26.833 13.889C26.9052 13.8168 26.991 13.7581 27.0858 13.713C27.185 13.6679 27.2888 13.6498 27.4061 13.6498C27.5325 13.6498 27.6498 13.6679 27.7536 13.6994C27.8619 13.731 27.9522 13.7852 28.0244 13.8574L27.8935 14.0785C27.8258 14.0198 27.7536 13.9747 27.6769 13.9521C27.6002 13.9296 27.5235 13.916 27.4377 13.916C27.3655 13.916 27.2978 13.9296 27.2347 13.9567C27.167 13.9837 27.1128 14.0198 27.0587 14.0695C27.009 14.1191 26.9684 14.1778 26.9413 14.2454C26.9143 14.3131 26.8962 14.3898 26.8962 14.4756C26.8962 14.5613 26.9098 14.638 26.9413 14.7102C26.9729 14.7779 27.0135 14.8366 27.0632 14.8862C27.1128 14.9358 27.176 14.9719 27.2437 14.999C27.3114 15.0261 27.3881 15.0396 27.4648 15.0396C27.5596 15.0396 27.6453 15.0216 27.722 14.9855C27.7987 14.9494 27.8619 14.8997 27.9161 14.8366L28.0605 15.0351Z" fill="#FFF7DD"/>
<path d="M28.4248 15.2613V13.6819H28.7046V14.8597L29.6206 13.6819H29.9004V15.2613H29.6206V14.0835L28.7091 15.2613H28.4248Z" fill="#FFF7DD"/>
<path d="M31.7597 15.0351C31.692 15.1208 31.6017 15.1885 31.4979 15.2337C31.3896 15.2788 31.2768 15.3013 31.155 15.3013C31.0286 15.3013 30.9158 15.2833 30.812 15.2427C30.7083 15.2021 30.618 15.1479 30.5458 15.0757C30.4736 15.0035 30.4149 14.9178 30.3698 14.814C30.3292 14.7102 30.3066 14.5974 30.3066 14.4756C30.3066 14.3628 30.3247 14.2545 30.3653 14.1507C30.4059 14.0514 30.4601 13.9612 30.5323 13.889C30.6045 13.8168 30.6902 13.7581 30.785 13.713C30.8842 13.6679 30.988 13.6498 31.1054 13.6498C31.2317 13.6498 31.349 13.6679 31.4528 13.6994C31.5611 13.731 31.6514 13.7852 31.7236 13.8574L31.5927 14.0785C31.525 14.0198 31.4528 13.9747 31.3761 13.9521C31.2994 13.9296 31.2227 13.916 31.1369 13.916C31.0647 13.916 30.9971 13.9296 30.9339 13.9567C30.8662 13.9837 30.812 14.0198 30.7579 14.0695C30.7083 14.1191 30.6676 14.1778 30.6406 14.2454C30.6135 14.3131 30.5954 14.3898 30.5954 14.4756C30.5954 14.5613 30.609 14.638 30.6406 14.7102C30.6722 14.7779 30.7128 14.8366 30.7624 14.8862C30.812 14.9358 30.8752 14.9719 30.9429 14.999C31.0106 15.0261 31.0873 15.0396 31.164 15.0396C31.2588 15.0396 31.3445 15.0216 31.4212 14.9855C31.4979 14.9494 31.5611 14.8997 31.6153 14.8366L31.7597 15.0351Z" fill="#FFF7DD"/>
<path d="M31.9043 13.6819H33.3438V13.9617H32.7617V15.2613H32.4819V13.9617H31.9043V13.6819Z" fill="#FFF7DD"/>
<path d="M34.9379 15.0887C34.8612 15.1609 34.7664 15.2105 34.6627 15.2466C34.5543 15.2827 34.4506 15.2963 34.3468 15.2963C34.2159 15.2963 34.1031 15.2782 33.9993 15.2376C33.8955 15.197 33.8053 15.1429 33.7331 15.0707C33.6609 14.9985 33.6022 14.9127 33.5616 14.8089C33.521 14.7052 33.5029 14.5923 33.5029 14.4705C33.5029 14.3577 33.521 14.2494 33.5571 14.1456C33.5932 14.0463 33.6473 13.9561 33.715 13.8839C33.7827 13.8117 33.8684 13.753 33.9677 13.7079C34.067 13.6628 34.1843 13.6447 34.3152 13.6447C34.4145 13.6447 34.5092 13.6628 34.5995 13.6989C34.6897 13.735 34.7664 13.7846 34.8341 13.8478C34.9018 13.911 34.9515 13.9877 34.9921 14.0779C35.0327 14.1682 35.0507 14.2675 35.0507 14.3712C35.0507 14.4434 35.0462 14.5066 35.0327 14.5608H33.8098C33.8233 14.7097 33.8775 14.827 33.9767 14.9082C34.076 14.9894 34.2069 15.0346 34.3603 15.0346C34.4641 15.0346 34.5589 15.021 34.6401 14.9849C34.7258 14.9533 34.7935 14.9127 34.8432 14.8676L34.9379 15.0887ZM34.2971 13.9065C34.1527 13.9065 34.0354 13.9471 33.9497 14.0238C33.8639 14.105 33.8098 14.2043 33.7962 14.3261H34.7574C34.7484 14.1953 34.7078 14.0915 34.6265 14.0148C34.5453 13.9471 34.4325 13.9065 34.2971 13.9065Z" fill="#FFF7DD"/>
<path d="M35.4287 13.6811H35.6859L36.2906 14.4617L36.8682 13.6766H37.1164V15.2559H36.8366V14.1053L36.2906 14.8408H36.2816L35.713 14.1053V15.2559H35.4332V13.6811H35.4287Z" fill="#FFF7DD"/>
<path d="M37.6404 13.7895C37.7126 13.7444 37.7893 13.7083 37.8841 13.6857C37.9743 13.6586 38.0691 13.6451 38.1684 13.6451C38.394 13.6451 38.5474 13.6993 38.6377 13.8121C38.7279 13.9249 38.773 14.0828 38.773 14.2904V15.2605H38.5113V15.0575C38.4662 15.1161 38.403 15.1703 38.3218 15.2154C38.2406 15.2605 38.1368 15.2831 38.0059 15.2831C37.8615 15.2831 37.7442 15.2425 37.6539 15.1568C37.5637 15.071 37.5186 14.9492 37.5186 14.7958C37.5186 14.7145 37.5321 14.6469 37.5637 14.5792C37.5953 14.516 37.6359 14.4619 37.69 14.4212C37.7442 14.3806 37.8074 14.349 37.8796 14.3265C37.9518 14.3039 38.033 14.2949 38.1187 14.2949C38.1774 14.2949 38.2451 14.3039 38.3218 14.3175C38.394 14.331 38.4572 14.3581 38.5113 14.3987C38.5113 14.3265 38.5068 14.2588 38.4978 14.1956C38.4887 14.1324 38.4752 14.0828 38.4481 14.0377C38.4256 13.9926 38.385 13.961 38.3398 13.9339C38.2902 13.9113 38.227 13.8978 38.1503 13.8978C38.051 13.8978 37.9698 13.9068 37.9066 13.9294C37.8435 13.952 37.7803 13.979 37.7171 14.0106L37.6404 13.7895ZM38.1007 15.0349C38.2045 15.0349 38.2857 15.0124 38.3534 14.9672C38.4165 14.9221 38.4707 14.877 38.5113 14.8319V14.6333C38.412 14.5611 38.2947 14.5295 38.1548 14.5295C38.1142 14.5295 38.0691 14.534 38.0285 14.5476C37.9879 14.5566 37.9518 14.5747 37.9202 14.5927C37.8886 14.6153 37.8615 14.6423 37.8435 14.6739C37.8254 14.7055 37.8164 14.7461 37.8164 14.7913C37.8164 14.868 37.8389 14.9266 37.8886 14.9717C37.9382 15.0078 38.0059 15.0349 38.1007 15.0349Z" fill="#FFF7DD"/>
<path d="M41.4124 12.986C41.3627 13.0492 41.3086 13.0943 41.2544 13.1214C41.1958 13.1485 41.1371 13.1665 41.0694 13.1801C41.0017 13.1936 40.9295 13.2071 40.8528 13.2207C40.7761 13.2342 40.6949 13.2613 40.6091 13.3019C40.5324 13.3335 40.4738 13.3786 40.4241 13.4373C40.3745 13.4914 40.3384 13.5546 40.3068 13.6268C40.2752 13.6945 40.2526 13.7712 40.2391 13.8434C40.2256 13.9156 40.212 13.9923 40.2075 14.069H40.2165C40.2436 14.0148 40.2752 13.9607 40.3203 13.9201C40.3655 13.875 40.4106 13.8389 40.4692 13.8028C40.5234 13.7712 40.5821 13.7441 40.6452 13.7261C40.7084 13.708 40.7761 13.699 40.8438 13.699C40.9566 13.699 41.0559 13.717 41.1506 13.7531C41.2409 13.7892 41.3176 13.8434 41.3808 13.9111C41.4439 13.9788 41.4936 14.0645 41.5252 14.1592C41.5613 14.254 41.5748 14.3623 41.5748 14.4841C41.5748 14.5924 41.5568 14.6962 41.5161 14.7955C41.4755 14.8948 41.4214 14.9805 41.3492 15.0527C41.277 15.1249 41.1912 15.1836 41.092 15.2287C40.9927 15.2738 40.8844 15.2919 40.7626 15.2919C40.6317 15.2919 40.5189 15.2693 40.4151 15.2242C40.3113 15.179 40.2256 15.1114 40.1534 15.0301C40.0812 14.9444 40.027 14.8406 39.9864 14.7188C39.9458 14.5969 39.9277 14.4616 39.9277 14.3082C39.9277 14.1908 39.9368 14.069 39.9503 13.9427C39.9638 13.8163 39.9909 13.6945 40.036 13.5771C40.0812 13.4598 40.1353 13.356 40.212 13.2613C40.2887 13.1665 40.388 13.0943 40.5144 13.0402C40.6046 12.9996 40.6904 12.9725 40.7626 12.959C40.8393 12.9454 40.907 12.9364 40.9656 12.9229C41.0243 12.9138 41.0784 12.8958 41.1281 12.8777C41.1777 12.8597 41.2228 12.8191 41.2634 12.7649L41.4124 12.986ZM40.2256 14.3668C40.2256 14.4706 40.2391 14.5608 40.2662 14.6466C40.2932 14.7278 40.3294 14.8 40.3745 14.8542C40.4196 14.9128 40.4783 14.9579 40.5414 14.9895C40.6091 15.0211 40.6768 15.0392 40.7535 15.0392C40.8302 15.0392 40.9024 15.0256 40.9656 14.9985C41.0288 14.9715 41.0829 14.9309 41.1281 14.8857C41.1732 14.8361 41.2093 14.782 41.2364 14.7188C41.2634 14.6556 41.277 14.5834 41.277 14.5112C41.277 14.3578 41.2319 14.2269 41.1461 14.1277C41.0604 14.0239 40.934 13.9742 40.7716 13.9742C40.6949 13.9742 40.6272 13.9878 40.5685 14.0103C40.5099 14.0329 40.4557 14.0645 40.4061 14.1006C40.3609 14.1367 40.3203 14.1818 40.2887 14.2269C40.2571 14.263 40.2391 14.3127 40.2256 14.3668Z" fill="#FFF7DD"/>
<path d="M41.9756 13.6819H42.2554V14.1557H42.5171C42.6389 14.1557 42.7382 14.1693 42.8194 14.2009C42.9007 14.2325 42.9638 14.2731 43.009 14.3227C43.0586 14.3723 43.0902 14.431 43.1127 14.4987C43.1308 14.5664 43.1443 14.6341 43.1443 14.7017C43.1443 14.7739 43.1353 14.8416 43.1127 14.9093C43.0902 14.977 43.0541 15.0357 43.0044 15.0898C42.9548 15.144 42.8871 15.1846 42.8014 15.2162C42.7156 15.2477 42.6119 15.2658 42.49 15.2658H41.9756V13.6819ZM42.2554 14.4175V14.9996H42.4584C42.5983 14.9996 42.6976 14.977 42.7563 14.9274C42.8149 14.8777 42.842 14.8055 42.842 14.7108C42.842 14.616 42.8149 14.5438 42.7563 14.4942C42.6976 14.4445 42.5983 14.422 42.4629 14.422H42.2554V14.4175ZM43.4422 13.6819H43.7219V15.2613H43.4422V13.6819Z" fill="#FFF7DD"/>
<path d="M45.5849 15.0351C45.5172 15.1208 45.4269 15.1885 45.3231 15.2337C45.2148 15.2788 45.102 15.3013 44.9802 15.3013C44.8538 15.3013 44.741 15.2833 44.6372 15.2427C44.5335 15.2021 44.4432 15.1479 44.371 15.0757C44.2943 15.0035 44.2401 14.9178 44.195 14.814C44.1544 14.7102 44.1318 14.5974 44.1318 14.4756C44.1318 14.3628 44.1499 14.2545 44.1905 14.1507C44.2311 14.0514 44.2853 13.9612 44.3575 13.889C44.4297 13.8168 44.5154 13.7581 44.6102 13.713C44.7094 13.6679 44.8132 13.6498 44.9306 13.6498C45.0569 13.6498 45.1742 13.6679 45.278 13.6994C45.3863 13.731 45.4766 13.7852 45.5488 13.8574L45.4179 14.0785C45.3502 14.0198 45.278 13.9747 45.2013 13.9521C45.1246 13.9296 45.0479 13.916 44.9621 13.916C44.8899 13.916 44.8223 13.9296 44.7591 13.9567C44.6914 13.9837 44.6372 14.0198 44.5831 14.0695C44.5335 14.1191 44.4928 14.1778 44.4658 14.2454C44.4387 14.3131 44.4206 14.3898 44.4206 14.4756C44.4206 14.5613 44.4342 14.638 44.4658 14.7102C44.4973 14.7779 44.538 14.8366 44.5876 14.8862C44.6372 14.9358 44.7004 14.9719 44.7681 14.999C44.8358 15.0261 44.9125 15.0396 44.9892 15.0396C45.084 15.0396 45.1697 15.0216 45.2464 14.9855C45.3231 14.9494 45.3863 14.8997 45.4405 14.8366L45.5849 15.0351Z" fill="#FFF7DD"/>
<path d="M45.7305 13.6819H47.17V13.9617H46.5878V15.2613H46.3081V13.9617H45.7305V13.6819Z" fill="#FFF7DD"/>
<path d="M47.4748 13.6808H47.7546V13.8659C47.8088 13.8027 47.8855 13.7485 47.9802 13.7079C48.0795 13.6673 48.1833 13.6447 48.2916 13.6447C48.4044 13.6447 48.5037 13.6628 48.594 13.7034C48.6842 13.744 48.7609 13.7982 48.8241 13.8704C48.8873 13.9426 48.9369 14.0238 48.9685 14.1231C49.0046 14.2223 49.0181 14.3306 49.0181 14.4479C49.0181 14.5653 49.0001 14.6781 48.9595 14.7819C48.9189 14.8856 48.8647 14.9759 48.7925 15.0526C48.7203 15.1293 48.6346 15.188 48.5308 15.2331C48.4315 15.2782 48.3187 15.2963 48.1923 15.2963C48.1066 15.2963 48.0254 15.2872 47.9487 15.2692C47.8719 15.2511 47.8043 15.2241 47.7456 15.188V15.9641H47.4658V13.6808H47.4748ZM48.2104 13.9065C48.1156 13.9065 48.0299 13.929 47.9487 13.9696C47.8674 14.0102 47.8043 14.0644 47.7546 14.1231V14.9082C47.8268 14.9533 47.8945 14.9894 47.9622 15.003C48.0299 15.021 48.1021 15.03 48.1743 15.03C48.26 15.03 48.3367 15.0165 48.4044 14.9849C48.4721 14.9578 48.5308 14.9172 48.5759 14.8676C48.621 14.818 48.6571 14.7548 48.6842 14.6871C48.7113 14.6149 48.7248 14.5382 48.7248 14.457C48.7248 14.3757 48.7158 14.3036 48.6932 14.2359C48.6707 14.1682 48.6391 14.1095 48.594 14.0599C48.5488 14.0102 48.4947 13.9741 48.4315 13.9471C48.3638 13.92 48.2916 13.9065 48.2104 13.9065Z" fill="#FFF7DD"/>
<path d="M27.8536 17.2144H26.9917V18.532H26.7119V16.9527H28.1334V18.532H27.8536V17.2144Z" fill="#FFF7DD"/>
<path d="M29.728 17.2329H29.173L29.1549 17.4991C29.1369 17.7247 29.1098 17.9052 29.0692 18.0451C29.0331 18.185 28.988 18.2888 28.9338 18.3655C28.8797 18.4422 28.8165 18.4918 28.7488 18.5144C28.6766 18.5414 28.6044 18.555 28.5187 18.555L28.4961 18.2797C28.5277 18.2842 28.5593 18.2752 28.5999 18.2572C28.6405 18.2391 28.6766 18.203 28.7172 18.1398C28.7533 18.0812 28.7894 17.9954 28.821 17.8826C28.8526 17.7698 28.8706 17.6254 28.8797 17.4404L28.9067 16.9486H30.0078V18.5279H29.728V17.2329Z" fill="#FFF7DD"/>
<path d="M30.5261 17.061C30.5983 17.0158 30.675 16.9797 30.7698 16.9572C30.8601 16.9301 30.9548 16.9166 31.0541 16.9166C31.2797 16.9166 31.4332 16.9707 31.5234 17.0835C31.6137 17.1963 31.6588 17.3543 31.6588 17.5618V18.532H31.3971V18.3289C31.3519 18.3876 31.2888 18.4417 31.2075 18.4869C31.1263 18.532 31.0225 18.5546 30.8916 18.5546C30.7472 18.5546 30.6299 18.5139 30.5397 18.4282C30.4494 18.3425 30.4043 18.2206 30.4043 18.0672C30.4043 17.986 30.4178 17.9183 30.4494 17.8506C30.481 17.7875 30.5216 17.7333 30.5758 17.6927C30.6299 17.6521 30.6931 17.6205 30.7653 17.5979C30.8375 17.5754 30.9187 17.5663 31.0045 17.5663C31.0631 17.5663 31.1308 17.5754 31.2075 17.5889C31.2797 17.6024 31.3429 17.6295 31.3971 17.6701C31.3971 17.5979 31.3925 17.5302 31.3835 17.4671C31.3745 17.4039 31.361 17.3543 31.3339 17.3091C31.3113 17.264 31.2707 17.2324 31.2256 17.2054C31.1759 17.1828 31.1128 17.1693 31.0361 17.1693C30.9368 17.1693 30.8556 17.1783 30.7924 17.2008C30.7292 17.2234 30.666 17.2505 30.6028 17.2821L30.5261 17.061ZM30.9864 18.3064C31.0902 18.3064 31.1714 18.2838 31.2391 18.2387C31.3023 18.1936 31.3564 18.1484 31.3971 18.1033V17.9048C31.2978 17.8326 31.1805 17.801 31.0406 17.801C31 17.801 30.9548 17.8055 30.9142 17.819C30.8736 17.8281 30.8375 17.8461 30.8059 17.8642C30.7743 17.8867 30.7472 17.9138 30.7292 17.9454C30.7111 17.977 30.7021 18.0176 30.7021 18.0627C30.7021 18.1394 30.7247 18.1981 30.7743 18.2432C30.824 18.2838 30.8962 18.3064 30.9864 18.3064Z" fill="#FFF7DD"/>
<path d="M31.9307 16.9527H33.3702V17.2325H32.788V18.532H32.5083V17.2325H31.9307V16.9527Z" fill="#FFF7DD"/>
<path d="M34.9584 18.3603C34.8817 18.4325 34.7869 18.4822 34.6832 18.5183C34.5749 18.5544 34.4711 18.5679 34.3673 18.5679C34.2364 18.5679 34.1236 18.5499 34.0198 18.5092C33.916 18.4686 33.8258 18.4145 33.7536 18.3423C33.6814 18.2701 33.6227 18.1844 33.5821 18.0806C33.5415 17.9768 33.5234 17.864 33.5234 17.7421C33.5234 17.6293 33.5415 17.521 33.5776 17.4173C33.6137 17.318 33.6678 17.2277 33.7355 17.1555C33.8032 17.0833 33.889 17.0247 33.9882 16.9796C34.0875 16.9344 34.2048 16.9164 34.3357 16.9164C34.435 16.9164 34.5297 16.9344 34.62 16.9705C34.7102 17.0066 34.7869 17.0563 34.8546 17.1194C34.9223 17.1826 34.972 17.2593 35.0126 17.3496C35.0532 17.4398 35.0712 17.5391 35.0712 17.6429C35.0712 17.7151 35.0667 17.7782 35.0532 17.8324H33.8393C33.8529 17.9813 33.907 18.0986 34.0063 18.1798C34.1056 18.2611 34.2364 18.3062 34.3898 18.3062C34.4936 18.3062 34.5884 18.2927 34.6696 18.2566C34.7554 18.225 34.823 18.1844 34.8727 18.1392L34.9584 18.3603ZM34.3176 17.1826C34.1732 17.1826 34.0559 17.2232 33.9702 17.2999C33.8844 17.3812 33.8303 17.4804 33.8168 17.6023H34.7779C34.7689 17.4714 34.7283 17.3676 34.6471 17.2909C34.5658 17.2187 34.4575 17.1826 34.3176 17.1826Z" fill="#FFF7DD"/>
<path d="M35.2097 16.9527H35.5662L36.1077 17.7153L35.5256 18.532H35.1826L35.7918 17.7153L35.2097 16.9527ZM36.1754 16.9527H36.4551V18.532H36.1754V16.9527ZM36.8432 17.7153L37.4614 18.532H37.114L36.5274 17.7153L37.0734 16.9527H37.4208L36.8432 17.7153Z" fill="#FFF7DD"/>
<path d="M39.017 18.3605C38.9403 18.4327 38.8455 18.4824 38.7418 18.5185C38.6335 18.5546 38.5297 18.5681 38.4259 18.5681C38.295 18.5681 38.1822 18.55 38.0784 18.5094C37.9746 18.4688 37.8844 18.4147 37.8122 18.3425C37.74 18.2703 37.6813 18.1845 37.6407 18.0808C37.6001 17.977 37.582 17.8642 37.582 17.7423C37.582 17.6295 37.6001 17.5212 37.6362 17.4174C37.6723 17.3182 37.7264 17.2279 37.7941 17.1557C37.8618 17.0835 37.9475 17.0249 38.0468 16.9797C38.1461 16.9346 38.2634 16.9166 38.3943 16.9166C38.4936 16.9166 38.5883 16.9346 38.6786 16.9707C38.7688 17.0068 38.8455 17.0564 38.9132 17.1196C38.9809 17.1828 39.0306 17.2595 39.0712 17.3498C39.1118 17.44 39.1298 17.5393 39.1298 17.6431C39.1298 17.7153 39.1253 17.7784 39.1118 17.8326H37.8979C37.9114 17.9815 37.9656 18.0988 38.0649 18.18C38.1641 18.2613 38.295 18.3064 38.4484 18.3064C38.5522 18.3064 38.647 18.2928 38.7282 18.2567C38.814 18.2252 38.8816 18.1845 38.9313 18.1394L39.017 18.3605ZM38.3762 17.1828C38.2318 17.1828 38.1145 17.2234 38.0288 17.3001C37.943 17.3813 37.8889 17.4806 37.8753 17.6024H38.8365C38.8275 17.4716 38.7869 17.3678 38.7057 17.2911C38.6244 17.2189 38.5161 17.1828 38.3762 17.1828Z" fill="#FFF7DD"/>
<path d="M39.5098 18.532V16.9526H39.7895V18.1304L40.7056 16.9526H40.9854V18.532H40.7056V17.3542L39.7895 18.532H39.5098ZM39.9971 16.1449C40.0107 16.3299 40.1009 16.4247 40.2679 16.4247C40.4258 16.4247 40.5115 16.3344 40.5251 16.1449H40.7868C40.7868 16.2171 40.7733 16.2803 40.7507 16.3389C40.7281 16.3976 40.692 16.4518 40.6469 16.4924C40.6018 16.5375 40.5476 16.5691 40.4845 16.5961C40.4213 16.6232 40.3491 16.6368 40.2679 16.6368C40.1821 16.6368 40.1054 16.6232 40.0377 16.5961C39.97 16.5691 39.9159 16.5375 39.8708 16.4924C39.8256 16.4472 39.7941 16.3976 39.767 16.3389C39.7444 16.2803 39.7309 16.2126 39.7309 16.1449H39.9971Z" fill="#FFF7DD"/>
<path d="M42.0242 7.05699V11.6731H40.3997V8.42875H38.8384V11.6731H37.2139V7.05699H42.0242Z" fill="#FFF7DD"/>
<path d="M36.4148 9.51185C36.4374 10.852 35.3544 11.8086 33.8201 11.8086C32.3671 11.8086 31.1396 10.9287 31.1396 8.78535C31.1396 6.96687 32.3039 5.46425 34.0232 5.43718C34.7767 5.43718 36.4148 5.43266 36.4148 5.43266L35.6567 6.79991C35.6567 6.79991 34.3661 6.79991 34.1946 6.79991C33.4546 6.79991 32.7912 7.30078 32.6965 8.06337C33.0936 7.69336 33.7073 7.47225 34.339 7.47225C35.5258 7.47677 36.3967 8.48302 36.4148 9.51185ZM34.7948 9.61563C34.7948 9.08317 34.3842 8.63645 33.8291 8.63645C33.2786 8.63645 32.8454 9.08768 32.8544 9.62465C32.8544 10.1932 33.3598 10.5768 33.7975 10.5768C34.3571 10.5768 34.7948 10.1571 34.7948 9.61563Z" fill="#FFF7DD"/>
<path d="M29.8863 10.0942C29.8863 10.0942 29.3403 10.4597 28.6138 10.4462C28.158 10.4462 27.5488 10.0491 27.5488 9.3497C27.5578 8.63674 28.1625 8.25319 28.6183 8.25319C29.3267 8.23063 29.8863 8.60516 29.8863 8.60516L30.491 7.51316C29.954 7.12961 29.4396 6.92656 28.7085 6.92204C27.1246 6.92204 26.0371 8.20807 26.0371 9.35421C26.0371 10.6944 27.2465 11.7999 28.6995 11.8089C29.3403 11.818 29.9946 11.6059 30.5 11.2043L29.8863 10.0942Z" fill="#FFF7DD"/>
</svg>
