<svg width="62" height="24" viewBox="0 0 62 24" fill="none" xmlns="http://www.w3.org/2000/svg">
<path d="M12.5261 11.998L10.1796 13.3518L8 17.1286L16.8852 11.998H12.5261Z" fill="#8F4794"/>
<path d="M19.2311 8.13086L16.8846 9.48457L14.7051 13.2614L23.5902 8.13086H19.2311Z" fill="#E40646"/>
<path d="M16.8846 6.77685L14.7051 3V10.7387V13.2611V20.9998L16.8846 17.223V6.77685Z" fill="#F9B429"/>
<path d="M14.7051 3L16.8846 6.77685L19.2311 8.13056H23.5902L14.7051 3Z" fill="#EF8019"/>
<path d="M14.7051 10.7393V21.0004L16.8846 17.2235V14.5161L14.7051 10.7393Z" fill="#78B72A"/>
<path d="M19.2311 15.8691L16.8846 17.2229L14.7051 20.9997L23.5902 15.8691H19.2311Z" fill="#00853F"/>
<path d="M8 6.87207V17.1287L10.1796 13.3563V10.6444L8 6.87207Z" fill="#5B57A2"/>
<path d="M14.7056 10.7392L14.7101 10.7437L8 6.87207L10.1796 10.6444L19.2317 15.8697H23.5908L14.7056 10.7392Z" fill="#0698D6"/>
<path d="M49.4297 13.6816H49.7095V14.1554H49.9712C50.093 14.1554 50.1923 14.169 50.2735 14.2006C50.3548 14.2321 50.4179 14.2728 50.4631 14.3224C50.5127 14.372 50.5443 14.4307 50.5668 14.4984C50.5849 14.5661 50.5984 14.6338 50.5984 14.7014C50.5984 14.7736 50.5894 14.8413 50.5668 14.909C50.5443 14.9767 50.5082 15.0354 50.4585 15.0895C50.4089 15.1436 50.3412 15.1843 50.2555 15.2158C50.1697 15.2474 50.066 15.2655 49.9441 15.2655H49.4342V13.6816H49.4297ZM49.7095 14.4172V14.9993H49.9125C50.0524 14.9993 50.1517 14.9767 50.2104 14.9271C50.269 14.8774 50.2961 14.8052 50.2961 14.7105C50.2961 14.6157 50.269 14.5435 50.2104 14.4939C50.1517 14.4442 50.0524 14.4217 49.917 14.4217H49.7095V14.4172ZM50.8963 13.6816H51.176V15.261H50.8963V13.6816Z" fill="#28315C"/>
<path d="M52.5213 14.4442L53.1215 15.261H52.7785L52.3137 14.6202L51.8444 15.261H51.5195L52.1152 14.4578L51.5511 13.6816H51.8941L52.3228 14.2773L52.7605 13.6816H53.0854L52.5213 14.4442Z" fill="#28315C"/>
<path d="M28.0605 15.0347C27.9928 15.1204 27.9025 15.1881 27.7987 15.2333C27.6904 15.2784 27.5776 15.3009 27.4558 15.3009C27.3294 15.3009 27.2166 15.2829 27.1128 15.2423C27.009 15.2017 26.9188 15.1475 26.8466 15.0753C26.7699 15.0031 26.7157 14.9174 26.6706 14.8136C26.63 14.7098 26.6074 14.597 26.6074 14.4752C26.6074 14.3624 26.6255 14.2541 26.6661 14.1503C26.7067 14.051 26.7608 13.9608 26.833 13.8886C26.9052 13.8164 26.991 13.7577 27.0858 13.7126C27.185 13.6675 27.2888 13.6494 27.4061 13.6494C27.5325 13.6494 27.6498 13.6675 27.7536 13.6991C27.8619 13.7306 27.9522 13.7848 28.0244 13.857L27.8935 14.0781C27.8258 14.0194 27.7536 13.9743 27.6769 13.9517C27.6002 13.9292 27.5235 13.9156 27.4377 13.9156C27.3655 13.9156 27.2978 13.9292 27.2347 13.9563C27.167 13.9833 27.1128 14.0194 27.0587 14.0691C27.009 14.1187 26.9684 14.1774 26.9413 14.245C26.9143 14.3127 26.8962 14.3894 26.8962 14.4752C26.8962 14.5609 26.9098 14.6376 26.9413 14.7098C26.9729 14.7775 27.0135 14.8362 27.0632 14.8858C27.1128 14.9354 27.176 14.9715 27.2437 14.9986C27.3114 15.0257 27.3881 15.0392 27.4648 15.0392C27.5596 15.0392 27.6453 15.0212 27.722 14.9851C27.7987 14.949 27.8619 14.8993 27.9161 14.8362L28.0605 15.0347Z" fill="#28315C"/>
<path d="M28.4238 15.261V13.6816H28.7036V14.8594L29.6196 13.6816H29.8994V15.261H29.6196V14.0832L28.7081 15.261H28.4238Z" fill="#28315C"/>
<path d="M31.7597 15.0347C31.692 15.1204 31.6017 15.1881 31.4979 15.2333C31.3896 15.2784 31.2768 15.3009 31.155 15.3009C31.0286 15.3009 30.9158 15.2829 30.812 15.2423C30.7083 15.2017 30.618 15.1475 30.5458 15.0753C30.4736 15.0031 30.4149 14.9174 30.3698 14.8136C30.3292 14.7098 30.3066 14.597 30.3066 14.4752C30.3066 14.3624 30.3247 14.2541 30.3653 14.1503C30.4059 14.051 30.4601 13.9608 30.5323 13.8886C30.6045 13.8164 30.6902 13.7577 30.785 13.7126C30.8842 13.6675 30.988 13.6494 31.1054 13.6494C31.2317 13.6494 31.349 13.6675 31.4528 13.6991C31.5611 13.7306 31.6514 13.7848 31.7236 13.857L31.5927 14.0781C31.525 14.0194 31.4528 13.9743 31.3761 13.9517C31.2994 13.9292 31.2227 13.9156 31.1369 13.9156C31.0647 13.9156 30.9971 13.9292 30.9339 13.9563C30.8662 13.9833 30.812 14.0194 30.7579 14.0691C30.7083 14.1187 30.6676 14.1774 30.6406 14.245C30.6135 14.3127 30.5954 14.3894 30.5954 14.4752C30.5954 14.5609 30.609 14.6376 30.6406 14.7098C30.6722 14.7775 30.7128 14.8362 30.7624 14.8858C30.812 14.9354 30.8752 14.9715 30.9429 14.9986C31.0106 15.0257 31.0873 15.0392 31.164 15.0392C31.2588 15.0392 31.3445 15.0212 31.4212 14.9851C31.4979 14.949 31.5611 14.8993 31.6153 14.8362L31.7597 15.0347Z" fill="#28315C"/>
<path d="M31.9043 13.6816H33.3438V13.9614H32.7617V15.261H32.4819V13.9614H31.9043V13.6816Z" fill="#28315C"/>
<path d="M34.9369 15.0885C34.8602 15.1607 34.7655 15.2103 34.6617 15.2464C34.5534 15.2825 34.4496 15.2961 34.3458 15.2961C34.2149 15.2961 34.1021 15.278 33.9983 15.2374C33.8945 15.1968 33.8043 15.1426 33.7321 15.0704C33.6599 14.9982 33.6012 14.9125 33.5606 14.8087C33.52 14.7049 33.502 14.5921 33.502 14.4703C33.502 14.3575 33.52 14.2492 33.5561 14.1454C33.5922 14.0461 33.6464 13.9559 33.714 13.8837C33.7817 13.8115 33.8675 13.7528 33.9667 13.7077C34.066 13.6626 34.1833 13.6445 34.3142 13.6445C34.4135 13.6445 34.5082 13.6626 34.5985 13.6987C34.6887 13.7348 34.7655 13.7844 34.8331 13.8476C34.9008 13.9108 34.9505 13.9875 34.9911 14.0777C35.0317 14.168 35.0498 14.2672 35.0498 14.371C35.0498 14.4432 35.0452 14.5064 35.0317 14.5605H33.8088C33.8223 14.7095 33.8765 14.8268 33.9758 14.908C34.075 14.9892 34.2059 15.0343 34.3593 15.0343C34.4631 15.0343 34.5579 15.0208 34.6391 14.9847C34.7248 14.9531 34.7925 14.9125 34.8422 14.8674L34.9369 15.0885ZM34.2962 13.9062C34.1518 13.9062 34.0344 13.9469 33.9487 14.0236C33.863 14.1048 33.8088 14.2041 33.7953 14.3259H34.7564C34.7474 14.195 34.7068 14.0913 34.6256 14.0145C34.5443 13.9469 34.4315 13.9062 34.2962 13.9062Z" fill="#28315C"/>
<path d="M35.4277 13.6813H35.6849L36.2896 14.4619L36.8672 13.6768H37.1154V15.2561H36.8356V14.1054L36.2896 14.8409H36.2806L35.712 14.1054V15.2561H35.4322V13.6813H35.4277Z" fill="#28315C"/>
<path d="M37.6414 13.7889C37.7136 13.7438 37.7903 13.7077 37.885 13.6851C37.9753 13.6581 38.0701 13.6445 38.1693 13.6445C38.395 13.6445 38.5484 13.6987 38.6386 13.8115C38.7289 13.9243 38.774 14.0822 38.774 14.2898V15.26H38.5123V15.0569C38.4672 15.1156 38.404 15.1697 38.3228 15.2148C38.2415 15.26 38.1377 15.2825 38.0069 15.2825C37.8625 15.2825 37.7452 15.2419 37.6549 15.1562C37.5647 15.0704 37.5195 14.9486 37.5195 14.7952C37.5195 14.714 37.5331 14.6463 37.5647 14.5786C37.5962 14.5154 37.6369 14.4613 37.691 14.4207C37.7452 14.38 37.8083 14.3485 37.8805 14.3259C37.9527 14.3033 38.034 14.2943 38.1197 14.2943C38.1784 14.2943 38.246 14.3033 38.3228 14.3169C38.395 14.3304 38.4581 14.3575 38.5123 14.3981C38.5123 14.3259 38.5078 14.2582 38.4988 14.195C38.4897 14.1319 38.4762 14.0822 38.4491 14.0371C38.4265 13.992 38.3859 13.9604 38.3408 13.9333C38.2912 13.9108 38.228 13.8972 38.1513 13.8972C38.052 13.8972 37.9708 13.9062 37.9076 13.9288C37.8444 13.9514 37.7813 13.9784 37.7181 14.01L37.6414 13.7889ZM38.1016 15.0343C38.2054 15.0343 38.2867 15.0118 38.3543 14.9667C38.4175 14.9215 38.4717 14.8764 38.5123 14.8313V14.6327C38.413 14.5605 38.2957 14.529 38.1558 14.529C38.1152 14.529 38.0701 14.5335 38.0294 14.547C37.9888 14.556 37.9527 14.5741 37.9211 14.5921C37.8896 14.6147 37.8625 14.6418 37.8444 14.6734C37.8264 14.7049 37.8174 14.7455 37.8174 14.7907C37.8174 14.8674 37.8399 14.926 37.8896 14.9712C37.9392 15.0073 38.0069 15.0343 38.1016 15.0343Z" fill="#28315C"/>
<path d="M41.4124 12.9858C41.3627 13.0489 41.3086 13.0941 41.2544 13.1211C41.1958 13.1482 41.1371 13.1662 41.0694 13.1798C41.0017 13.1933 40.9295 13.2069 40.8528 13.2204C40.7761 13.2339 40.6949 13.261 40.6091 13.3016C40.5324 13.3332 40.4738 13.3783 40.4241 13.437C40.3745 13.4911 40.3384 13.5543 40.3068 13.6265C40.2752 13.6942 40.2526 13.7709 40.2391 13.8431C40.2256 13.9153 40.212 13.992 40.2075 14.0687H40.2165C40.2436 14.0146 40.2752 13.9604 40.3203 13.9198C40.3655 13.8747 40.4106 13.8386 40.4692 13.8025C40.5234 13.7709 40.5821 13.7438 40.6452 13.7258C40.7084 13.7077 40.7761 13.6987 40.8438 13.6987C40.9566 13.6987 41.0559 13.7168 41.1506 13.7529C41.2409 13.789 41.3176 13.8431 41.3808 13.9108C41.4439 13.9785 41.4936 14.0642 41.5252 14.159C41.5613 14.2537 41.5748 14.362 41.5748 14.4839C41.5748 14.5922 41.5568 14.6959 41.5161 14.7952C41.4755 14.8945 41.4214 14.9802 41.3492 15.0524C41.277 15.1246 41.1912 15.1833 41.092 15.2284C40.9927 15.2735 40.8844 15.2916 40.7626 15.2916C40.6317 15.2916 40.5189 15.269 40.4151 15.2239C40.3113 15.1788 40.2256 15.1111 40.1534 15.0299C40.0812 14.9441 40.027 14.8403 39.9864 14.7185C39.9458 14.5967 39.9277 14.4613 39.9277 14.3079C39.9277 14.1906 39.9368 14.0687 39.9503 13.9424C39.9638 13.816 39.9909 13.6942 40.036 13.5769C40.0812 13.4596 40.1353 13.3558 40.212 13.261C40.2887 13.1662 40.388 13.0941 40.5144 13.0399C40.6046 12.9993 40.6904 12.9722 40.7626 12.9587C40.8393 12.9451 40.907 12.9361 40.9656 12.9226C41.0243 12.9136 41.0784 12.8955 41.1281 12.8775C41.1777 12.8594 41.2228 12.8188 41.2634 12.7646L41.4124 12.9858ZM40.2256 14.3665C40.2256 14.4703 40.2391 14.5606 40.2662 14.6463C40.2932 14.7275 40.3294 14.7997 40.3745 14.8539C40.4196 14.9125 40.4783 14.9577 40.5414 14.9892C40.6091 15.0208 40.6768 15.0389 40.7535 15.0389C40.8302 15.0389 40.9024 15.0253 40.9656 14.9983C41.0288 14.9712 41.0829 14.9306 41.1281 14.8855C41.1732 14.8358 41.2093 14.7817 41.2364 14.7185C41.2634 14.6553 41.277 14.5831 41.277 14.5109C41.277 14.3575 41.2319 14.2267 41.1461 14.1274C41.0604 14.0236 40.934 13.974 40.7716 13.974C40.6949 13.974 40.6272 13.9875 40.5685 14.0101C40.5099 14.0326 40.4557 14.0642 40.4061 14.1003C40.3609 14.1364 40.3203 14.1815 40.2887 14.2267C40.2571 14.2628 40.2391 14.3124 40.2256 14.3665Z" fill="#28315C"/>
<path d="M41.9746 13.6816H42.2544V14.1554H42.5161C42.638 14.1554 42.7372 14.169 42.8185 14.2006C42.8997 14.2321 42.9629 14.2728 43.008 14.3224C43.0576 14.372 43.0892 14.4307 43.1118 14.4984C43.1298 14.5661 43.1434 14.6338 43.1434 14.7014C43.1434 14.7736 43.1343 14.8413 43.1118 14.909C43.0892 14.9767 43.0531 15.0354 43.0035 15.0895C42.9538 15.1436 42.8861 15.1843 42.8004 15.2158C42.7147 15.2474 42.6109 15.2655 42.489 15.2655H41.9746V13.6816ZM42.2544 14.4172V14.9993H42.4575C42.5973 14.9993 42.6966 14.9767 42.7553 14.9271C42.8139 14.8774 42.841 14.8052 42.841 14.7105C42.841 14.6157 42.8139 14.5435 42.7553 14.4939C42.6966 14.4442 42.5973 14.4217 42.462 14.4217H42.2544V14.4172ZM43.4412 13.6816H43.721V15.261H43.4412V13.6816Z" fill="#28315C"/>
<path d="M45.5839 15.0347C45.5162 15.1204 45.426 15.1881 45.3222 15.2333C45.2139 15.2784 45.1011 15.3009 44.9792 15.3009C44.8529 15.3009 44.7401 15.2829 44.6363 15.2423C44.5325 15.2017 44.4422 15.1475 44.37 15.0753C44.2933 15.0031 44.2392 14.9174 44.194 14.8136C44.1534 14.7098 44.1309 14.597 44.1309 14.4752C44.1309 14.3624 44.1489 14.2541 44.1895 14.1503C44.2301 14.051 44.2843 13.9608 44.3565 13.8886C44.4287 13.8164 44.5144 13.7577 44.6092 13.7126C44.7085 13.6675 44.8123 13.6494 44.9296 13.6494C45.0559 13.6494 45.1733 13.6675 45.277 13.6991C45.3853 13.7306 45.4756 13.7848 45.5478 13.857L45.4169 14.0781C45.3492 14.0194 45.277 13.9743 45.2003 13.9517C45.1236 13.9292 45.0469 13.9156 44.9612 13.9156C44.889 13.9156 44.8213 13.9292 44.7581 13.9563C44.6904 13.9833 44.6363 14.0194 44.5821 14.0691C44.5325 14.1187 44.4919 14.1774 44.4648 14.245C44.4377 14.3127 44.4197 14.3894 44.4197 14.4752C44.4197 14.5609 44.4332 14.6376 44.4648 14.7098C44.4964 14.7775 44.537 14.8362 44.5866 14.8858C44.6363 14.9354 44.6994 14.9715 44.7671 14.9986C44.8348 15.0257 44.9115 15.0392 44.9882 15.0392C45.083 15.0392 45.1687 15.0212 45.2455 14.9851C45.3222 14.949 45.3853 14.8993 45.4395 14.8362L45.5839 15.0347Z" fill="#28315C"/>
<path d="M45.7305 13.6816H47.17V13.9614H46.5878V15.261H46.3081V13.9614H45.7305V13.6816Z" fill="#28315C"/>
<path d="M47.4739 13.6806H47.7536V13.8656C47.8078 13.8025 47.8845 13.7483 47.9793 13.7077C48.0785 13.6671 48.1823 13.6445 48.2906 13.6445C48.4035 13.6445 48.5027 13.6626 48.593 13.7032C48.6832 13.7438 48.7599 13.798 48.8231 13.8701C48.8863 13.9423 48.9359 14.0236 48.9675 14.1228C49.0036 14.2221 49.0172 14.3304 49.0172 14.4477C49.0172 14.5651 48.9991 14.6779 48.9585 14.7816C48.9179 14.8854 48.8637 14.9757 48.7915 15.0524C48.7193 15.1291 48.6336 15.1878 48.5298 15.2329C48.4305 15.278 48.3177 15.2961 48.1914 15.2961C48.1056 15.2961 48.0244 15.287 47.9477 15.269C47.871 15.2509 47.8033 15.2239 47.7446 15.1878V15.9639H47.4648V13.6806H47.4739ZM48.2094 13.9062C48.1146 13.9062 48.0289 13.9288 47.9477 13.9694C47.8665 14.01 47.8033 14.0642 47.7536 14.1228V14.908C47.8258 14.9531 47.8935 14.9892 47.9612 15.0028C48.0289 15.0208 48.1011 15.0298 48.1733 15.0298C48.259 15.0298 48.3358 15.0163 48.4035 14.9847C48.4711 14.9576 48.5298 14.917 48.5749 14.8674C48.6201 14.8177 48.6562 14.7546 48.6832 14.6869C48.7103 14.6147 48.7238 14.538 48.7238 14.4568C48.7238 14.3755 48.7148 14.3033 48.6923 14.2357C48.6697 14.168 48.6381 14.1093 48.593 14.0597C48.5479 14.01 48.4937 13.9739 48.4305 13.9469C48.3628 13.9198 48.2906 13.9062 48.2094 13.9062Z" fill="#28315C"/>
<path d="M27.8546 17.2139H26.9927V18.5315H26.7129V16.9521H28.1343V18.5315H27.8546V17.2139Z" fill="#28315C"/>
<path d="M29.728 17.2325H29.173L29.1549 17.4988C29.1369 17.7244 29.1098 17.9049 29.0692 18.0447C29.0331 18.1846 28.988 18.2884 28.9338 18.3651C28.8797 18.4418 28.8165 18.4915 28.7488 18.514C28.6766 18.5411 28.6044 18.5546 28.5187 18.5546L28.4961 18.2794C28.5277 18.2839 28.5593 18.2749 28.5999 18.2568C28.6405 18.2388 28.6766 18.2027 28.7172 18.1395C28.7533 18.0808 28.7894 17.9951 28.821 17.8823C28.8526 17.7695 28.8706 17.6251 28.8797 17.4401L28.9067 16.9482H30.0078V18.5276H29.728V17.2325Z" fill="#28315C"/>
<path d="M30.5261 17.0604C30.5983 17.0153 30.675 16.9792 30.7698 16.9566C30.8601 16.9296 30.9548 16.916 31.0541 16.916C31.2797 16.916 31.4332 16.9702 31.5234 17.083C31.6137 17.1958 31.6588 17.3537 31.6588 17.5613V18.5314H31.3971V18.3284C31.3519 18.387 31.2888 18.4412 31.2075 18.4863C31.1263 18.5314 31.0225 18.554 30.8916 18.554C30.7472 18.554 30.6299 18.5134 30.5397 18.4277C30.4494 18.3419 30.4043 18.2201 30.4043 18.0667C30.4043 17.9854 30.4178 17.9178 30.4494 17.8501C30.481 17.7869 30.5216 17.7328 30.5758 17.6921C30.6299 17.6515 30.6931 17.6199 30.7653 17.5974C30.8375 17.5748 30.9187 17.5658 31.0045 17.5658C31.0631 17.5658 31.1308 17.5748 31.2075 17.5884C31.2797 17.6019 31.3429 17.629 31.3971 17.6696C31.3971 17.5974 31.3925 17.5297 31.3835 17.4665C31.3745 17.4034 31.361 17.3537 31.3339 17.3086C31.3113 17.2635 31.2707 17.2319 31.2256 17.2048C31.1759 17.1822 31.1128 17.1687 31.0361 17.1687C30.9368 17.1687 30.8556 17.1777 30.7924 17.2003C30.7292 17.2229 30.666 17.2499 30.6028 17.2815L30.5261 17.0604ZM30.9864 18.3058C31.0902 18.3058 31.1714 18.2833 31.2391 18.2381C31.3023 18.193 31.3564 18.1479 31.3971 18.1028V17.9042C31.2978 17.832 31.1805 17.8004 31.0406 17.8004C31 17.8004 30.9548 17.805 30.9142 17.8185C30.8736 17.8275 30.8375 17.8456 30.8059 17.8636C30.7743 17.8862 30.7472 17.9133 30.7292 17.9448C30.7111 17.9764 30.7021 18.017 30.7021 18.0622C30.7021 18.1389 30.7247 18.1975 30.7743 18.2427C30.824 18.2833 30.8962 18.3058 30.9864 18.3058Z" fill="#28315C"/>
<path d="M31.9316 16.9521H33.3711V17.2319H32.789V18.5315H32.5092V17.2319H31.9316V16.9521Z" fill="#28315C"/>
<path d="M34.9584 18.36C34.8817 18.4322 34.7869 18.4818 34.6832 18.5179C34.5749 18.554 34.4711 18.5675 34.3673 18.5675C34.2364 18.5675 34.1236 18.5495 34.0198 18.5089C33.916 18.4683 33.8258 18.4141 33.7536 18.3419C33.6814 18.2697 33.6227 18.184 33.5821 18.0802C33.5415 17.9764 33.5234 17.8636 33.5234 17.7418C33.5234 17.629 33.5415 17.5207 33.5776 17.4169C33.6137 17.3176 33.6678 17.2274 33.7355 17.1552C33.8032 17.083 33.889 17.0243 33.9882 16.9792C34.0875 16.9341 34.2048 16.916 34.3357 16.916C34.435 16.916 34.5297 16.9341 34.62 16.9702C34.7102 17.0063 34.7869 17.0559 34.8546 17.1191C34.9223 17.1822 34.972 17.259 35.0126 17.3492C35.0532 17.4395 35.0712 17.5387 35.0712 17.6425C35.0712 17.7147 35.0667 17.7779 35.0532 17.832H33.8393C33.8529 17.9809 33.907 18.0983 34.0063 18.1795C34.1056 18.2607 34.2364 18.3058 34.3898 18.3058C34.4936 18.3058 34.5884 18.2923 34.6696 18.2562C34.7554 18.2246 34.823 18.184 34.8727 18.1389L34.9584 18.36ZM34.3176 17.1822C34.1732 17.1822 34.0559 17.2229 33.9702 17.2996C33.8844 17.3808 33.8303 17.4801 33.8168 17.6019H34.7779C34.7689 17.471 34.7283 17.3673 34.6471 17.2905C34.5658 17.2183 34.4575 17.1822 34.3176 17.1822Z" fill="#28315C"/>
<path d="M35.2087 16.9521H35.5652L36.1067 17.7147L35.5246 18.5315H35.1816L35.7908 17.7147L35.2087 16.9521ZM36.1744 16.9521H36.4542V18.5315H36.1744V16.9521ZM36.8423 17.7147L37.4605 18.5315H37.113L36.5264 17.7147L37.0724 16.9521H37.4199L36.8423 17.7147Z" fill="#28315C"/>
<path d="M39.017 18.36C38.9403 18.4322 38.8455 18.4818 38.7418 18.5179C38.6335 18.554 38.5297 18.5675 38.4259 18.5675C38.295 18.5675 38.1822 18.5495 38.0784 18.5089C37.9746 18.4683 37.8844 18.4141 37.8122 18.3419C37.74 18.2697 37.6813 18.184 37.6407 18.0802C37.6001 17.9764 37.582 17.8636 37.582 17.7418C37.582 17.629 37.6001 17.5207 37.6362 17.4169C37.6723 17.3176 37.7264 17.2274 37.7941 17.1552C37.8618 17.083 37.9475 17.0243 38.0468 16.9792C38.1461 16.9341 38.2634 16.916 38.3943 16.916C38.4936 16.916 38.5883 16.9341 38.6786 16.9702C38.7688 17.0063 38.8455 17.0559 38.9132 17.1191C38.9809 17.1822 39.0306 17.259 39.0712 17.3492C39.1118 17.4395 39.1298 17.5387 39.1298 17.6425C39.1298 17.7147 39.1253 17.7779 39.1118 17.832H37.8979C37.9114 17.9809 37.9656 18.0983 38.0649 18.1795C38.1641 18.2607 38.295 18.3058 38.4484 18.3058C38.5522 18.3058 38.647 18.2923 38.7282 18.2562C38.814 18.2246 38.8816 18.184 38.9313 18.1389L39.017 18.36ZM38.3762 17.1822C38.2318 17.1822 38.1145 17.2229 38.0288 17.2996C37.943 17.3808 37.8889 17.4801 37.8753 17.6019H38.8365C38.8275 17.471 38.7869 17.3673 38.7057 17.2905C38.6244 17.2183 38.5161 17.1822 38.3762 17.1822Z" fill="#28315C"/>
<path d="M39.5098 18.5316V16.9522H39.7895V18.13L40.7056 16.9522H40.9854V18.5316H40.7056V17.3538L39.7895 18.5316H39.5098ZM39.9971 16.1445C40.0107 16.3295 40.1009 16.4243 40.2679 16.4243C40.4258 16.4243 40.5115 16.3341 40.5251 16.1445H40.7868C40.7868 16.2167 40.7733 16.2799 40.7507 16.3386C40.7281 16.3972 40.692 16.4514 40.6469 16.492C40.6018 16.5371 40.5476 16.5687 40.4845 16.5958C40.4213 16.6228 40.3491 16.6364 40.2679 16.6364C40.1821 16.6364 40.1054 16.6228 40.0377 16.5958C39.97 16.5687 39.9159 16.5371 39.8708 16.492C39.8256 16.4469 39.7941 16.3972 39.767 16.3386C39.7444 16.2799 39.7309 16.2122 39.7309 16.1445H39.9971Z" fill="#28315C"/>
<path d="M42.0232 7.05664V11.6728H40.3987V8.4284H38.8374V11.6728H37.2129V7.05664H42.0232Z" fill="#28315C"/>
<path d="M36.4138 9.5118C36.4364 10.852 35.3534 11.8086 33.8191 11.8086C32.3661 11.8086 31.1387 10.9287 31.1387 8.78531C31.1387 6.96682 32.3029 5.4642 34.0222 5.43713C34.7758 5.43713 36.4138 5.43262 36.4138 5.43262L35.6557 6.79987C35.6557 6.79987 34.3651 6.79987 34.1937 6.79987C33.4536 6.79987 32.7903 7.30074 32.6955 8.06333C33.0926 7.69331 33.7063 7.47221 34.3381 7.47221C35.5249 7.47672 36.3958 8.48298 36.4138 9.5118ZM34.7938 9.61558C34.7938 9.08312 34.3832 8.6364 33.8281 8.6364C33.2776 8.6364 32.8444 9.08764 32.8534 9.62461C32.8534 10.1932 33.3588 10.5767 33.7966 10.5767C34.3561 10.5767 34.7938 10.1571 34.7938 9.61558Z" fill="#28315C"/>
<path d="M29.8863 10.0941C29.8863 10.0941 29.3403 10.4596 28.6138 10.446C28.158 10.446 27.5488 10.0489 27.5488 9.34953C27.5578 8.63658 28.1625 8.25302 28.6183 8.25302C29.3267 8.23046 29.8863 8.60499 29.8863 8.60499L30.491 7.513C29.954 7.12944 29.4396 6.92639 28.7085 6.92188C27.1246 6.92188 26.0371 8.2079 26.0371 9.35404C26.0371 10.6942 27.2465 11.7997 28.6995 11.8088C29.3403 11.8178 29.9946 11.6057 30.5 11.2041L29.8863 10.0941Z" fill="#28315C"/>
</svg>
