<svg width="16" height="16" viewBox="0 0 16 16" fill="none" xmlns="http://www.w3.org/2000/svg">
<path d="M7.68323 1.83917C7.71245 1.78015 7.75758 1.73046 7.81353 1.69572C7.86949 1.66099 7.93404 1.64258 7.9999 1.64258C8.06576 1.64258 8.13031 1.66099 8.18626 1.69572C8.24222 1.73046 8.28735 1.78015 8.31656 1.83917L9.85656 4.95851C9.95802 5.16382 10.1078 5.34145 10.293 5.47614C10.4782 5.61084 10.6933 5.69858 10.9199 5.73184L14.3639 6.23584C14.4292 6.2453 14.4905 6.27282 14.5409 6.31531C14.5913 6.35779 14.6288 6.41354 14.6492 6.47625C14.6696 6.53895 14.6721 6.60611 14.6563 6.67013C14.6405 6.73415 14.6071 6.79248 14.5599 6.83851L12.0692 9.26384C11.905 9.42391 11.7821 9.6215 11.7111 9.83959C11.6402 10.0577 11.6233 10.2898 11.6619 10.5158L12.2499 13.9425C12.2614 14.0077 12.2544 14.0749 12.2296 14.1363C12.2048 14.1977 12.1632 14.2509 12.1096 14.2898C12.056 14.3288 11.9925 14.3518 11.9265 14.3564C11.8604 14.361 11.7944 14.347 11.7359 14.3158L8.65723 12.6972C8.45438 12.5907 8.22868 12.535 7.99956 12.535C7.77044 12.535 7.54475 12.5907 7.3419 12.6972L4.2639 14.3158C4.20545 14.3468 4.1395 14.3607 4.07353 14.356C4.00757 14.3513 3.94424 14.3282 3.89076 14.2893C3.83728 14.2504 3.79579 14.1973 3.771 14.136C3.74622 14.0747 3.73914 14.0076 3.75056 13.9425L4.3379 10.5165C4.37669 10.2903 4.35989 10.0581 4.28892 9.83987C4.21796 9.62164 4.09497 9.42394 3.93056 9.26384L1.4399 6.83917C1.39229 6.7932 1.35856 6.73477 1.34254 6.67056C1.32652 6.60634 1.32886 6.53892 1.34928 6.47597C1.36971 6.41302 1.40741 6.35707 1.45808 6.3145C1.50876 6.27192 1.57037 6.24444 1.6359 6.23517L5.07923 5.73184C5.30607 5.69884 5.52149 5.61121 5.70695 5.4765C5.89242 5.34179 6.04237 5.16402 6.1439 4.95851L7.68323 1.83917Z" stroke="#28315C" stroke-width="1.5" stroke-linecap="round" stroke-linejoin="round"/>
</svg>
