<svg width="120" height="24" viewBox="0 0 120 24" fill="none" xmlns="http://www.w3.org/2000/svg">
<path d="M12.0003 17.27L16.1503 19.78C16.9103 20.24 17.8403 19.56 17.6403 18.7L16.5403 13.98L20.2103 10.8C20.8803 10.22 20.5203 9.12001 19.6403 9.05001L14.8103 8.64001L12.9203 4.18001C12.5803 3.37001 11.4203 3.37001 11.0803 4.18001L9.19032 8.63001L4.36032 9.04001C3.48032 9.11001 3.12032 10.21 3.79032 10.79L7.46032 13.97L6.36032 18.69C6.16032 19.55 7.09032 20.23 7.85032 19.77L12.0003 17.27Z" fill="#FDC700"/>
<path d="M36.0003 17.27L40.1503 19.78C40.9103 20.24 41.8403 19.56 41.6403 18.7L40.5403 13.98L44.2103 10.8C44.8803 10.22 44.5203 9.12001 43.6403 9.05001L38.8103 8.64001L36.9203 4.18001C36.5803 3.37001 35.4203 3.37001 35.0803 4.18001L33.1903 8.63001L28.3603 9.04001C27.4803 9.11001 27.1203 10.21 27.7903 10.79L31.4603 13.97L30.3603 18.69C30.1603 19.55 31.0903 20.23 31.8503 19.77L36.0003 17.27Z" fill="#FDC700"/>
<path d="M60.0003 17.27L64.1503 19.78C64.9103 20.24 65.8403 19.56 65.6403 18.7L64.5403 13.98L68.2103 10.8C68.8803 10.22 68.5203 9.12001 67.6403 9.05001L62.8103 8.64001L60.9203 4.18001C60.5803 3.37001 59.4203 3.37001 59.0803 4.18001L57.1903 8.63001L52.3603 9.04001C51.4803 9.11001 51.1203 10.21 51.7903 10.79L55.4603 13.97L54.3603 18.69C54.1603 19.55 55.0903 20.23 55.8503 19.77L60.0003 17.27Z" fill="#FDC700"/>
<path d="M84.0003 17.27L88.1503 19.78C88.9103 20.24 89.8403 19.56 89.6403 18.7L88.5403 13.98L92.2103 10.8C92.8803 10.22 92.5203 9.12001 91.6403 9.05001L86.8103 8.64001L84.9203 4.18001C84.5803 3.37001 83.4203 3.37001 83.0803 4.18001L81.1903 8.63001L76.3603 9.04001C75.4803 9.11001 75.1203 10.21 75.7903 10.79L79.4603 13.97L78.3603 18.69C78.1603 19.55 79.0903 20.23 79.8503 19.77L84.0003 17.27Z" fill="#FDC700"/>
<path d="M108 17.27L112.15 19.78C112.91 20.24 113.84 19.56 113.64 18.7L112.54 13.98L116.21 10.8C116.88 10.22 116.52 9.12001 115.64 9.05001L110.81 8.64001L108.92 4.18001C108.58 3.37001 107.42 3.37001 107.08 4.18001L105.19 8.63001L100.36 9.04001C99.4803 9.11001 99.1203 10.21 99.7903 10.79L103.46 13.97L102.36 18.69C102.16 19.55 103.09 20.23 103.85 19.77L108 17.27Z" fill="#FDC700"/>
</svg>
