<svg width="32" height="32" viewBox="0 0 32 32" fill="none" xmlns="http://www.w3.org/2000/svg">
<path d="M18.4401 22.09C18.7154 22.2165 19.0257 22.2454 19.3197 22.1719C19.6136 22.0985 19.8738 21.9271 20.0574 21.686L20.5307 21.066C20.7791 20.7348 21.1012 20.466 21.4715 20.2809C21.8418 20.0957 22.2501 19.9993 22.6641 19.9993H26.6641C27.3713 19.9993 28.0496 20.2803 28.5497 20.7804C29.0498 21.2805 29.3307 21.9588 29.3307 22.666V26.666C29.3307 27.3733 29.0498 28.0515 28.5497 28.5516C28.0496 29.0517 27.3713 29.3327 26.6641 29.3327C20.2989 29.3327 14.1944 26.8041 9.6935 22.3032C5.19263 17.8024 2.66406 11.6979 2.66406 5.33268C2.66406 4.62544 2.94501 3.94716 3.44511 3.44706C3.94521 2.94697 4.62349 2.66602 5.33073 2.66602H9.33073C10.038 2.66602 10.7162 2.94697 11.2163 3.44706C11.7164 3.94716 11.9974 4.62544 11.9974 5.33268V9.33268C11.9974 9.74667 11.901 10.155 11.7159 10.5253C11.5307 10.8955 11.2619 11.2176 10.9307 11.466L10.3067 11.934C10.062 12.1209 9.88942 12.3868 9.81845 12.6865C9.74748 12.9862 9.78244 13.3012 9.9174 13.578C11.7396 17.2792 14.7366 20.2724 18.4401 22.09Z" stroke="#28315C" stroke-width="2" stroke-linecap="round" stroke-linejoin="round"/>
</svg>
