<svg width="24" height="24" viewBox="0 0 24 24" fill="none" xmlns="http://www.w3.org/2000/svg">
<g clip-path="url(#clip0_690_32098)">
<path d="M12 24C18.6274 24 24 18.6274 24 12C24 5.37258 18.6274 0 12 0C5.37258 0 0 5.37258 0 12C0 18.6274 5.37258 24 12 24Z" fill="url(#paint0_linear_690_32098)"/>
<path fill-rule="evenodd" clip-rule="evenodd" d="M5.43076 11.8728C8.92996 10.3488 11.2628 9.34319 12.4292 8.85839C15.7628 7.47119 16.454 7.23119 16.9052 7.22399C17.0036 7.22159 17.2268 7.24799 17.3708 7.36319C17.4932 7.46159 17.5268 7.59359 17.5412 7.68719C17.5556 7.78079 17.5772 7.99439 17.5604 8.15999C17.3804 10.0584 16.598 14.6616 16.202 16.788C16.034 17.688 15.7028 17.988 15.3812 18.0192C14.6852 18.084 14.1548 17.5584 13.4804 17.1168C12.4244 16.4256 11.8268 15.9936 10.802 15.3168C9.61636 14.5368 10.3844 14.1072 11.0612 13.4064C11.2388 13.224 14.3084 10.4304 14.3684 10.176C14.3756 10.1448 14.3828 10.0272 14.3132 9.96479C14.2436 9.90239 14.1404 9.92399 14.0636 9.94079C13.958 9.96479 12.2708 11.0808 9.00196 13.2864C8.52196 13.6152 8.08996 13.776 7.70116 13.7664C7.27156 13.7568 6.44836 13.524 5.83636 13.3248C5.08516 13.08 4.48756 12.9504 4.54036 12.5376C4.56676 12.3192 4.86436 12.0984 5.43076 11.8728Z" fill="white"/>
</g>
<defs>
<linearGradient id="paint0_linear_690_32098" x1="11.9989" y1="0" x2="11.9989" y2="23.8224" gradientUnits="userSpaceOnUse">
<stop stop-color="#2AABEE"/>
<stop offset="1" stop-color="#229ED9"/>
</linearGradient>
<clipPath id="clip0_690_32098">
<rect width="24" height="24" fill="white"/>
</clipPath>
</defs>
</svg>
