<svg width="48" height="24" viewBox="0 0 48 24" fill="none" xmlns="http://www.w3.org/2000/svg">
<path d="M21.5409 17.8H18.5227L20.409 6.20715H23.4276L21.5409 17.8ZM15.9836 6.20715L13.1061 14.1808L12.7656 12.4638L12.766 12.4644L11.7504 7.25095C11.7504 7.25095 11.6276 6.20715 10.3186 6.20715H5.56168L5.50586 6.40344C5.50586 6.40344 6.96055 6.7061 8.663 7.72851L11.2852 17.8003H14.43L19.2319 6.20715H15.9836ZM39.7234 17.8H42.4948L40.0785 6.20684H37.6522C36.5318 6.20684 36.2589 7.07078 36.2589 7.07078L31.7575 17.8H34.9038L35.533 16.078H39.3699L39.7234 17.8ZM36.4022 13.6992L37.9881 9.36088L38.8802 13.6992H36.4022ZM31.9935 8.99496L32.4242 6.50546C32.4242 6.50546 31.0951 6 29.7096 6C28.2118 6 24.6549 6.65462 24.6549 9.83782C24.6549 12.8328 28.8295 12.87 28.8295 14.4431C28.8295 16.0163 25.0851 15.7344 23.8493 14.7424L23.4006 17.3454C23.4006 17.3454 24.7483 18 26.8074 18C28.867 18 31.9743 16.9336 31.9743 14.031C31.9743 11.0168 27.7622 10.7362 27.7622 9.42569C27.7625 8.11489 30.7019 8.28328 31.9935 8.99496Z" fill="#2566AF"/>
<path d="M12.766 12.4638L11.7504 7.25037C11.7504 7.25037 11.6276 6.20657 10.3186 6.20657H5.56168L5.50586 6.40287C5.50586 6.40287 7.79224 6.8767 9.98528 8.65203C12.0822 10.3489 12.766 12.4638 12.766 12.4638Z" fill="#E6A540"/>
</svg>
