<svg width="24" height="24" viewBox="0 0 24 24" fill="none" xmlns="http://www.w3.org/2000/svg">
<rect width="24" height="24" rx="12" fill="url(#paint0_linear_690_32104)"/>
<g filter="url(#filter0_i_690_32104)">
<path fill-rule="evenodd" clip-rule="evenodd" d="M19.833 8.80357C19.9443 8.45565 19.833 8.2 19.3037 8.2H17.5533C17.1082 8.2 16.903 8.42084 16.7918 8.66438C16.7918 8.66438 15.9016 10.6997 14.6406 12.0218C14.2327 12.4045 14.0472 12.5262 13.8247 12.5262C13.7134 12.5262 13.5523 12.4045 13.5523 12.0566V8.80357C13.5523 8.38607 13.4232 8.2 13.0523 8.2H10.3016C10.0235 8.2 9.85622 8.39377 9.85622 8.57742C9.85622 8.9732 10.4867 9.06448 10.5517 10.1778V12.5958C10.5517 13.126 10.4496 13.2221 10.2271 13.2221C9.63368 13.2221 8.19024 11.1777 7.33415 8.83835C7.16638 8.38367 6.9981 8.2 6.55075 8.2H4.80034C4.30022 8.2 4.2002 8.42084 4.2002 8.66438C4.2002 9.09928 4.79362 11.2564 6.96329 14.1093C8.40972 16.0576 10.4476 17.1137 12.3021 17.1137C13.4147 17.1137 13.5524 16.8791 13.5524 16.4751V15.0026C13.5524 14.5334 13.6578 14.4398 14.0101 14.4398C14.2697 14.4398 14.7148 14.5615 15.7533 15.5009C16.9401 16.6142 17.1358 17.1137 17.8034 17.1137H19.5538C20.0539 17.1137 20.3039 16.8791 20.1597 16.4162C20.0018 15.9548 19.4352 15.2855 18.6833 14.492C18.2753 14.0397 17.6634 13.5526 17.4779 13.309C17.2183 12.9959 17.2925 12.8567 17.4779 12.5784C17.4779 12.5784 19.6105 9.76032 19.833 8.80357Z" fill="white"/>
</g>
<defs>
<filter id="filter0_i_690_32104" x="3" y="3" width="18" height="18.5" filterUnits="userSpaceOnUse" color-interpolation-filters="sRGB">
<feFlood flood-opacity="0" result="BackgroundImageFix"/>
<feBlend mode="normal" in="SourceGraphic" in2="BackgroundImageFix" result="shape"/>
<feColorMatrix in="SourceAlpha" type="matrix" values="0 0 0 0 0 0 0 0 0 0 0 0 0 0 0 0 0 0 127 0" result="hardAlpha"/>
<feOffset dy="0.5"/>
<feGaussianBlur stdDeviation="1.25"/>
<feComposite in2="hardAlpha" operator="arithmetic" k2="-1" k3="1"/>
<feColorMatrix type="matrix" values="0 0 0 0 0 0 0 0 0 0 0 0 0 0 0 0 0 0 0.1 0"/>
<feBlend mode="normal" in2="shape" result="effect1_innerShadow_690_32104"/>
</filter>
<linearGradient id="paint0_linear_690_32104" x1="13.6587" y1="24.7157" x2="2.43905" y2="-5.13947e-07" gradientUnits="userSpaceOnUse">
<stop offset="0.0729167" stop-color="#1568C8"/>
<stop offset="0.927083" stop-color="#3F98FF"/>
</linearGradient>
</defs>
</svg>
