<svg width="48" height="24" viewBox="0 0 48 24" fill="none" xmlns="http://www.w3.org/2000/svg">
<g clip-path="url(#clip0_690_31828)">
<path d="M25.8787 8.2509C26.414 8.50465 26.8235 8.85634 27.107 9.30596C27.3949 9.75114 27.5389 10.2653 27.5389 10.8485C27.5389 11.4317 27.3949 11.9414 27.107 12.3777C26.8145 12.8273 26.3916 13.1768 25.8382 13.4261C25.2893 13.6709 24.6347 13.7933 23.8743 13.7933H22.0859V16.6313H19.9668V7.87695H23.9283C24.6842 7.87695 25.3343 8.0016 25.8787 8.2509ZM24.5492 12.1239C24.8101 12.0037 25.0081 11.8346 25.1431 11.6164C25.278 11.3938 25.3455 11.1379 25.3455 10.8485C25.3455 10.5591 25.2803 10.3032 25.1498 10.0806C25.0104 9.85798 24.8034 9.68882 24.5289 9.57307C24.259 9.45288 23.9238 9.39278 23.5234 9.39278H22.0859V12.3109H23.5301C23.9441 12.3109 24.2837 12.2486 24.5492 12.1239ZM30.6565 16.7515C30.1796 16.7515 29.7522 16.6781 29.3742 16.5312C28.9828 16.3798 28.6813 16.1594 28.4699 15.8701C28.2585 15.5763 28.1527 15.2179 28.1527 14.7949C28.1527 14.1139 28.4384 13.6086 29.0098 13.2792C29.4822 13.0076 30.1413 12.8384 30.9871 12.7716C31.3381 12.7449 31.689 12.7093 32.0399 12.6648C32.3099 12.6292 32.5056 12.5757 32.6271 12.5046C32.7486 12.4289 32.8093 12.3243 32.8093 12.1907V12.1573C32.8093 11.8902 32.7103 11.6832 32.5123 11.5363C32.3189 11.3849 32.0444 11.3093 31.689 11.3093C31.3291 11.3093 31.0344 11.3783 30.8049 11.5163C30.58 11.6543 30.4293 11.8368 30.3528 12.0638L28.4159 11.9303C28.5194 11.5252 28.7128 11.1779 28.9963 10.8886C29.2842 10.5947 29.6577 10.3699 30.1166 10.2141C30.5755 10.0583 31.1042 9.98041 31.7025 9.98041C32.1299 9.98041 32.5326 10.0249 32.9105 10.114C33.2929 10.203 33.6326 10.3343 33.9296 10.5079C34.2355 10.6905 34.4739 10.9242 34.6449 11.2091C34.8159 11.494 34.9013 11.8234 34.9013 12.1974V16.6313H32.9105V15.7165H32.8565C32.7351 15.9213 32.5731 16.1016 32.3706 16.2573C31.9477 16.5868 31.3763 16.7515 30.6565 16.7515ZM31.2571 15.4962C31.5676 15.4962 31.8397 15.4427 32.0737 15.3358C32.3122 15.2291 32.4966 15.0844 32.6271 14.9018C32.7575 14.7193 32.8228 14.5145 32.8228 14.2875V13.5864C32.6293 13.6931 32.1479 13.7911 31.3785 13.8802C31.1176 13.9158 30.9017 13.9647 30.7307 14.027C30.3437 14.174 30.1503 14.4121 30.1503 14.7416C30.1503 14.982 30.2516 15.1689 30.454 15.3025C30.6565 15.4316 30.9242 15.4962 31.2571 15.4962ZM37.3509 19.0887C37.1079 19.0887 36.8739 19.0709 36.649 19.0353C36.4286 19.0041 36.2441 18.9619 36.0956 18.9084L36.568 17.5462L36.6355 17.5595C36.8739 17.6218 37.0809 17.653 37.2564 17.653C37.4544 17.653 37.6231 17.6085 37.7625 17.5194C37.9065 17.4349 38.0213 17.2947 38.1067 17.0988L38.2282 16.8183L35.5288 10.0605H37.722L39.281 14.8885H39.3619L40.9412 10.0605H43.148L40.219 17.3391C40.0751 17.6997 39.8861 18.0092 39.6522 18.2674C39.4002 18.5389 39.0853 18.7437 38.7074 18.8817C38.3339 19.0197 37.8818 19.0887 37.3509 19.0887Z" fill="#FFF7DD"/>
<path d="M17.617 12.4214C17.617 8.70076 14.5688 5.68457 10.8085 5.68457C7.04827 5.68457 4 8.70076 4 12.4214C4 16.1421 7.04827 19.1583 10.8085 19.1583C14.5688 19.1583 17.617 16.1421 17.617 12.4214Z" fill="#FC3F1D"/>
<path d="M11.7673 16.4699H13.1894V8.3857H11.1213C9.04049 8.3857 7.94687 9.44422 7.94687 11.003C7.94687 12.2476 8.54602 12.9802 9.61581 13.7364L7.75879 16.4699H9.29921L11.3673 13.4105L10.6507 12.9339C9.78092 12.3529 9.35709 11.8981 9.35709 10.9213C9.35709 10.0606 9.969 9.47875 11.1324 9.47875H11.7673V16.4699Z" fill="#FFF7DD"/>
</g>
<defs>
<clipPath id="clip0_690_31828">
<rect width="40" height="16" fill="white" transform="translate(4 4)"/>
</clipPath>
</defs>
</svg>
